<svg width="220" height="220" viewBox="0 0 220 220" fill="none" xmlns="http://www.w3.org/2000/svg">
<path d="M191.749 161.106C191.693 155.934 190.517 150.827 188.684 146.03C187.269 142.317 185.626 138.701 184.022 135.071C171.258 106.453 157.863 78.1369 143.847 50.1449C141.876 46.2336 139.947 42.2987 137.865 38.448C135.819 34.6917 133.437 31.0756 130.354 28.1355C125.435 23.3106 118.834 20.4339 112.059 20H108.94C101.967 20.3542 95.1591 23.3652 90.155 28.3834C87.1852 31.2778 84.8869 34.8068 82.8956 38.4583C80.8411 42.2456 78.9388 46.1185 77.0048 49.9678C67.6005 68.7483 58.4731 87.6741 49.6257 106.739C44.3518 118.148 39.1225 129.576 34.0925 141.098C32.0065 145.897 30.1199 150.861 29.4098 156.101C28.0942 164.948 29.9808 174.233 34.5746 181.83C38.5342 188.429 44.4781 193.746 51.4061 196.818C56.822 199.223 62.7085 200.295 68.5977 199.948C76.464 199.519 84.049 196.611 90.7045 192.368C98.1289 187.68 104.479 181.446 110.391 174.919C115.889 181.015 121.772 186.832 128.564 191.391C135.123 195.831 142.602 199.045 150.468 199.81C159.012 200.728 167.864 198.549 175.034 193.656C181.376 189.333 186.288 183.125 189.114 175.858C190.934 171.169 191.83 166.154 191.749 161.106ZM110.427 157.693C108.282 155.096 106.393 152.285 104.494 149.496C101.301 144.677 98.3971 139.639 96.0615 134.317C94.1476 129.901 92.6111 125.265 92.0114 120.451C91.5739 116.631 91.6786 112.646 93.0415 109.019C94.261 105.619 96.6052 102.673 99.575 100.726C106.651 96.0279 116.736 96.5356 123.148 102.234C126.393 105.078 128.331 109.283 128.819 113.605C129.458 119.349 128.188 125.119 126.238 130.477C122.557 140.419 116.729 149.331 110.427 157.693ZM179.855 169.877C177.964 176.591 173.419 182.457 167.472 185.841C162.201 188.874 155.91 189.913 149.968 188.892C142.4 187.68 135.61 183.549 129.726 178.673C125.402 175.098 121.508 171.012 117.778 166.801C123.667 159.138 129.215 151.121 133.453 142.357C137.152 134.682 139.962 126.366 140.229 117.736C140.38 112.26 139.378 106.684 136.892 101.809C133.637 95.2958 127.805 90.2923 121.119 87.8718C114.874 85.5767 107.932 85.3715 101.561 87.2401C95.5522 88.9891 90.0646 92.7041 86.3043 97.8537C82.9946 102.344 81.108 107.864 80.6704 113.462C79.9975 121.525 81.9616 129.569 84.9328 136.981C89.3501 147.812 95.8334 157.615 102.994 166.708C99.7651 170.545 96.2614 174.127 92.5121 177.424C86.6989 182.485 80.0478 186.891 72.5129 188.567C66.4213 189.974 59.8491 189.274 54.2625 186.367C47.719 183.012 42.6948 176.693 40.7996 169.43C39.3506 164.095 39.6719 158.334 41.395 153.108C42.8282 148.783 44.7722 144.662 46.5913 140.501C59.2192 112.191 72.4641 84.1772 86.3158 56.4797C88.3817 52.3574 90.4161 48.2158 92.6025 44.1614C94.3872 40.8951 96.4632 37.6878 99.3971 35.3942C102.569 32.8517 106.494 31.506 110.514 31.5818C114.646 31.5316 118.754 33.0976 121.914 35.8296C125.036 38.4967 127.145 42.1452 129.039 45.782C133.32 54.0547 137.432 62.4234 141.545 70.7832C153.284 94.6858 164.563 118.824 175.377 143.185C177.011 146.969 178.76 150.724 179.86 154.718C181.205 159.643 181.249 164.962 179.855 169.877Z" fill="#FF5A60"/>
</svg>
