<svg width="35" height="33" viewBox="0 0 35 33" fill="none" xmlns="http://www.w3.org/2000/svg">
<path d="M34.5781 10.2548L17.9065 0.869273C17.6586 0.729773 17.3413 0.729773 17.0934 0.869273L0.422071 10.2548C0.161786 10.4014 0 10.6781 0 10.9769V32.2351H4.10964V14.4263H30.8904V32.2351H35V10.9769C35 10.6781 34.8382 10.4015 34.5781 10.2548ZM11.6068 11.537C11.6068 11.7353 11.446 11.8962 11.2474 11.8962H7.9415C7.743 11.8962 7.58214 11.7353 7.58214 11.537V10.5308C7.58214 10.3323 7.74293 10.1715 7.9415 10.1715H11.2474C11.4459 10.1715 11.6068 10.3323 11.6068 10.5308V11.537ZM19.5124 11.537C19.5124 11.7353 19.3514 11.8962 19.1529 11.8962H15.8471C15.6486 11.8962 15.4877 11.7353 15.4877 11.537V10.5308C15.4877 10.3323 15.6486 10.1715 15.8471 10.1715H19.1529C19.3514 10.1715 19.5124 10.3323 19.5124 10.5308V11.537ZM27.4179 11.537C27.4179 11.7353 27.2571 11.8962 27.0586 11.8962H23.7526C23.5541 11.8962 23.3932 11.7353 23.3932 11.537V10.5308C23.3932 10.3323 23.5541 10.1715 23.7526 10.1715H27.0586C27.2571 10.1715 27.4179 10.3323 27.4179 10.5308V11.537Z" fill="#8469FE"/>
<path d="M28.6247 16.999H6.3756C6.23674 16.999 6.12402 17.1117 6.12402 17.2505V19.1715C6.12402 19.3105 6.23674 19.4232 6.3756 19.4232H28.6247C28.7635 19.4232 28.8762 19.3105 28.8762 19.1715V17.2505C28.8762 17.1117 28.7635 16.999 28.6247 16.999Z" fill="#8469FE"/>
<path d="M28.6247 21.3003H6.3756C6.23674 21.3003 6.12402 21.4129 6.12402 21.5518V23.4729C6.12402 23.6118 6.23674 23.7244 6.3756 23.7244H28.6247C28.7635 23.7244 28.8762 23.6119 28.8762 23.4729V21.5518C28.8762 21.4129 28.7635 21.3003 28.6247 21.3003Z" fill="#8469FE"/>
<path d="M28.6247 25.6011H6.3756C6.23674 25.6011 6.12402 25.7136 6.12402 25.8526V27.7738C6.12402 27.9126 6.23674 28.0252 6.3756 28.0252H28.6247C28.7635 28.0252 28.8762 27.9127 28.8762 27.7738V25.8526C28.8762 25.7136 28.7635 25.6011 28.6247 25.6011Z" fill="#8469FE"/>
</svg>
