<svg width="35" height="35" viewBox="0 0 35 35" fill="none" xmlns="http://www.w3.org/2000/svg">
<g clip-path="url(#clip0_1992_726)">
<path d="M0 32.083H20.4167V34.9997H0V32.083Z" fill="#8469FE"/>
<path d="M17.5003 29.1429C17.5003 28.7561 17.3467 28.3852 17.0732 28.1117C16.7997 27.8382 16.4288 27.6846 16.042 27.6846H4.37533C3.98855 27.6846 3.61762 27.8382 3.34413 28.1117C3.07064 28.3852 2.91699 28.7561 2.91699 29.1429V30.6249H17.5003V29.1429Z" fill="#8469FE"/>
<path d="M19.8427 17.2196C19.1632 17.9438 18.5934 18.7636 18.1514 19.6529L30.1549 31.6564C30.4284 31.9298 30.7993 32.0834 31.1859 32.0834C31.5726 32.0834 31.9435 31.9298 32.217 31.6564L34.2794 29.594C34.4149 29.4585 34.5223 29.2978 34.5956 29.1208C34.6689 28.9439 34.7066 28.7543 34.7066 28.5627C34.7066 28.3712 34.6689 28.1816 34.5956 28.0046C34.5223 27.8277 34.4149 27.6669 34.2794 27.5315L22.2759 15.5312C21.3851 15.9694 20.5649 16.5385 19.8427 17.2196Z" fill="#8469FE"/>
<path d="M12.6243 10.0012C11.5215 11.0247 10.2449 11.8431 8.85449 12.4181L16.3919 19.9555C16.972 18.5675 17.7912 17.2922 18.8124 16.1875C19.9153 15.1641 21.1919 14.3456 22.5822 13.7703L15.0444 6.23438C14.4641 7.62182 13.645 8.89675 12.6243 10.0012Z" fill="#8469FE"/>
<path d="M17.7777 0.722305L15.7156 2.78439C15.1462 3.35382 15.1462 4.27704 15.7156 4.84647L23.9639 13.0948C24.5334 13.6642 25.4566 13.6642 26.026 13.0948L28.0881 11.0327C28.6575 10.4633 28.6575 9.54007 28.0881 8.97064L19.8398 0.722305C19.2704 0.152876 18.3471 0.152876 17.7777 0.722305Z" fill="#8469FE"/>
<path d="M5.40367 13.0944L3.34159 15.1565C2.77216 15.7259 2.77216 16.6491 3.34159 17.2185L11.5899 25.4669C12.1593 26.0363 13.0826 26.0363 13.652 25.4669L15.7141 23.4048C16.2835 22.8354 16.2835 21.9121 15.7141 21.3427L7.46575 13.0944C6.89632 12.5249 5.9731 12.5249 5.40367 13.0944Z" fill="#8469FE"/>
</g>
<defs>
<clipPath id="clip0_1992_726">
<rect width="35" height="35" fill="white"/>
</clipPath>
</defs>
</svg>
