<svg width="513" height="488" viewBox="0 0 513 488" fill="none" xmlns="http://www.w3.org/2000/svg">
<path d="M255.799 59C233.302 59 215 77.302 215 99.8C215 122.297 233.302 140.599 255.799 140.599C278.296 140.599 296.599 122.297 296.599 99.8C296.599 77.303 278.296 59 255.799 59ZM255.799 124.499C242.181 124.499 231.1 113.419 231.1 99.8C231.1 86.181 242.181 75.1 255.799 75.1C269.418 75.1 280.499 86.18 280.499 99.8C280.499 113.419 269.419 124.499 255.799 124.499Z" fill="#8469FE"/>
<path d="M503.929 424.077H499.696C496.515 407.983 483.988 395.215 468.026 391.671V357.206C468.026 352.759 464.422 349.156 459.976 349.156H455.732V215.837H459.976C464.422 215.837 468.026 212.234 468.026 207.787V185.048H492.793C501.387 185.048 508.577 179.742 511.108 171.528C513.64 163.315 510.686 154.881 503.584 150.041L305.966 15.404C291.175 5.327 273.898 0 256 0C238.102 0 220.826 5.327 206.034 15.404L8.41821 150.042C1.31521 154.882 -1.63779 163.316 0.893213 171.529C3.42521 179.742 10.6152 185.049 19.2092 185.049H43.9762V207.788C43.9762 212.235 47.5802 215.838 52.0262 215.838H56.2702V349.157H52.0262C47.5802 349.157 43.9762 352.76 43.9762 357.207V391.671C28.0132 395.215 15.4872 407.983 12.3062 424.077H8.07321C3.62721 424.077 0.023213 427.68 0.023213 432.127V479.009C0.023213 483.456 3.62721 487.059 8.07321 487.059H503.929C508.375 487.059 511.979 483.456 511.979 479.009V432.127C511.979 427.68 508.375 424.077 503.929 424.077ZM52.0272 168.95V168.949H19.2102C17.2402 168.949 16.5282 167.593 16.2792 166.785C16.0302 165.977 15.8552 164.456 17.4832 163.347L215.101 28.709C227.208 20.46 241.351 16.1 256.002 16.1C270.652 16.1 284.796 20.461 296.903 28.709L494.519 163.348C496.147 164.457 495.972 165.978 495.723 166.786C495.474 167.594 494.761 168.95 492.793 168.95H459.977H383.896H349.354H273.274H238.73H162.649H128.107H52.0272ZM396.187 199.737H391.943V185.048H451.925V199.737H447.682H396.187ZM439.632 215.837V349.156H404.236V215.837H439.632ZM391.944 365.255H396.188H447.682H451.926V390.677H391.944V365.255ZM349.352 349.156H345.108V215.837H349.352C353.798 215.837 357.402 212.234 357.402 207.787V185.048H375.845V207.787C375.845 212.234 379.449 215.837 383.895 215.837H388.139V349.156H383.895C379.449 349.156 375.845 352.759 375.845 357.206V390.678H357.402V357.206C357.402 352.76 353.798 349.156 349.352 349.156ZM285.564 199.737H281.32V185.048H341.301V199.737H337.058H285.564ZM329.009 215.837V349.156H293.615V215.837H329.009ZM281.322 365.255H285.566H337.059H341.303V390.677H281.322V365.255ZM238.73 349.156H234.486V215.837H238.73C243.176 215.837 246.78 212.234 246.78 207.787V185.048H265.223V207.787C265.223 212.234 268.827 215.837 273.273 215.837H277.517V349.156H273.273C268.827 349.156 265.223 352.759 265.223 357.206V390.678H246.78V357.206C246.779 352.76 243.175 349.156 238.73 349.156ZM174.942 199.737H170.698V185.048H230.68V199.737H226.437H174.942ZM218.387 215.837V349.156H182.991V215.837H218.387ZM170.699 365.255H174.943H226.437H230.681V390.677H170.699V365.255ZM128.107 349.156H123.863V215.837H128.107C132.553 215.837 136.157 212.234 136.157 207.787V185.048H154.6V207.787C154.6 212.234 158.204 215.837 162.65 215.837H166.894V349.156H162.65C158.204 349.156 154.6 352.759 154.6 357.206V390.678H136.157V357.206C136.157 352.76 132.553 349.156 128.107 349.156ZM64.3192 199.737H60.0752V185.048H120.056V199.737H115.813H64.3192ZM107.763 215.837V349.156H72.3692V215.837H107.763ZM60.0762 365.255H64.3202H115.813H120.057V390.677H60.0762V365.255ZM52.9642 406.777H128.107H162.649H238.73H273.272H349.352H383.894H459.037C470.202 406.777 479.704 414.034 483.076 424.077H28.9252C32.2962 414.034 41.7992 406.777 52.9642 406.777ZM495.88 470.959H495.879H16.1222V440.177H19.5642H492.437H495.88V470.959Z" fill="#8469FE"/>
</svg>
