<svg width="35" height="35" viewBox="0 0 35 35" fill="none" xmlns="http://www.w3.org/2000/svg">
<g clip-path="url(#clip0_1992_894)">
<path d="M31.7188 16.0415V17.1353C31.7188 17.739 31.2288 18.229 30.625 18.229C30.0213 18.229 29.5312 17.739 29.5312 17.1353V16.0415H26.9792C26.5767 16.0415 26.25 16.3682 26.25 16.7707V22.604C26.25 23.0065 26.5767 23.3332 26.9792 23.3332H34.2708C34.6733 23.3332 35 23.0065 35 22.604V16.7707C35 16.3682 34.6733 16.0415 34.2708 16.0415H31.7188Z" fill="#8469FE"/>
<path d="M31.7188 7.2915V8.38525C31.7188 8.989 31.2288 9.479 30.625 9.479C30.0213 9.479 29.5312 8.989 29.5312 8.38525V7.2915H26.9792C26.5767 7.2915 26.25 7.61817 26.25 8.02067V13.854C26.25 14.2565 26.5767 14.5832 26.9792 14.5832H34.2708C34.6733 14.5832 35 14.2565 35 13.854V8.02067C35 7.61817 34.6733 7.2915 34.2708 7.2915H31.7188Z" fill="#8469FE"/>
<path d="M33.9062 25.5208H24.0625V19.3229V5.46875C24.0625 4.865 23.5725 4.375 22.9688 4.375C22.365 4.375 21.875 4.865 21.875 5.46875V18.2292H20.3758L16.9444 8.50938C16.38 6.90813 14.8604 5.83333 13.1629 5.83333H8.38542C7.78167 5.83333 7.29167 6.32333 7.29167 6.92708V14.5833H4.01042C1.79813 14.5833 0 16.3815 0 18.5938V25.1562C0 26.5635 1.14479 27.7083 2.55208 27.7083H2.99104C3.32938 29.3708 4.80229 30.625 6.5625 30.625C8.32271 30.625 9.79562 29.3708 10.134 27.7083H13.1979C13.5363 29.3708 15.0092 30.625 16.7694 30.625C18.5296 30.625 20.0025 29.3708 20.3408 27.7083H22.9673H33.9048C34.5085 27.7083 34.9985 27.2183 34.9985 26.6146C34.9985 26.0108 34.51 25.5208 33.9062 25.5208ZM9.47917 8.02083H13.1629C13.9344 8.02083 14.6256 8.50938 14.8823 9.23708L18.0556 18.2292H11.3021C10.2973 18.2292 9.47917 17.411 9.47917 16.4062V15.6771V8.02083ZM6.5625 28.4375C5.7575 28.4375 5.10417 27.7827 5.10417 26.9792C5.10417 26.1756 5.7575 25.5208 6.5625 25.5208C7.3675 25.5208 8.02083 26.1756 8.02083 26.9792C8.02083 27.7827 7.3675 28.4375 6.5625 28.4375ZM16.7708 28.4375C15.9658 28.4375 15.3125 27.7827 15.3125 26.9792C15.3125 26.1756 15.9658 25.5208 16.7708 25.5208C17.5758 25.5208 18.2292 26.1756 18.2292 26.9792C18.2292 27.7827 17.5758 28.4375 16.7708 28.4375Z" fill="#8469FE"/>
</g>
<defs>
<clipPath id="clip0_1992_894">
<rect width="35" height="35" fill="white"/>
</clipPath>
</defs>
</svg>
