<svg width="34" height="34" viewBox="0 0 34 34" fill="none" xmlns="http://www.w3.org/2000/svg">
<g clip-path="url(#clip0_940_487)">
<path d="M0.566789 34.0657H27.7667C28.0798 34.0657 28.3335 33.812 28.3335 33.4991V28.3991H32.3C32.6131 28.3991 32.8668 28.1454 32.8668 27.8325V22.1657C32.8668 21.8529 32.6131 21.5992 32.3 21.5992H28.3335V16.4991C28.3335 16.186 28.0798 15.9323 27.7667 15.9323H26.7268C26.8067 15.5619 26.7221 15.1749 26.4951 14.8714L23.9346 11.4582L25.1169 10.5713C25.6422 10.178 25.9356 9.54769 25.8985 8.89245L25.8417 7.87197C25.8261 7.59519 25.9501 7.32904 26.1719 7.16277L27.354 6.27614L27.8515 6.93916C27.9415 7.05927 28.0756 7.1389 28.2245 7.16017C28.251 7.16381 28.2777 7.16588 28.3047 7.16562C28.4274 7.16588 28.5467 7.12593 28.6448 7.05226L33.3202 3.54491C34.0709 2.98176 34.2232 1.9164 33.66 1.16544L33.3451 0.745209C32.7812 -0.00471686 31.7163 -0.156466 30.9651 0.405913L26.2902 3.913C26.0399 4.10081 25.989 4.45619 26.1768 4.70651L26.6741 5.36953L25.492 6.25642C24.9667 6.64967 24.6731 7.27976 24.7105 7.935L24.767 8.95548C24.7828 9.23226 24.6588 9.49866 24.437 9.66468L23.255 10.5516L20.6942 7.13838C20.4262 6.77548 19.9909 6.57549 19.5409 6.60843C19.1116 6.63956 18.7279 6.88858 18.5243 7.26808L13.868 15.9323H0.566789C0.253693 15.9323 0 16.186 0 16.4991V22.1657C0 22.4788 0.253693 22.7325 0.566789 22.7325H4.53328V27.2658H0.566789C0.253693 27.2658 0 27.5195 0 27.8325V33.4991C0 33.812 0.253693 34.0657 0.566789 34.0657ZM31.6453 1.31226C31.8953 1.12445 32.2504 1.17503 32.4385 1.42536L32.7534 1.84558C32.941 2.09591 32.8901 2.45076 32.6401 2.63857L28.4178 5.80611L27.423 4.47953L31.6453 1.31226ZM10.2001 28.3991H18.1334V32.9324H10.2001V28.3991ZM14.7334 22.7325H22.6666V27.2658H14.7334V22.7325ZM27.2002 32.9324H19.2667V28.3991H27.2002V32.9324ZM31.7334 27.2658H23.8V22.7325H31.7334V27.2658ZM27.2002 21.5992H19.2667V18.2993L25.0669 17.0656H27.2002V21.5992ZM19.523 7.80504C19.5422 7.76535 19.5821 7.73993 19.6262 7.73864L19.6374 7.73812C19.6975 7.73915 19.7533 7.76899 19.7876 7.81827L22.3478 11.2315L20.0101 12.9853C19.7598 13.1731 19.709 13.5282 19.8968 13.7788C20.0846 14.0291 20.4397 14.0797 20.6903 13.8921L23.028 12.1383L25.5885 15.5515C25.6292 15.6013 25.6412 15.6685 25.6196 15.7289C25.6062 15.771 25.5706 15.8018 25.527 15.8096L14.2849 18.2002C14.2151 18.2111 14.1451 18.1813 14.1049 18.1232C14.0597 18.0687 14.0507 17.993 14.0815 17.9292L19.523 7.80504ZM13.1985 18.8033C13.5005 19.2186 14.0188 19.4166 14.5207 19.3087L18.1334 18.5403V21.5992H10.2001V17.0656H13.2587L13.0831 17.3925C12.8403 17.8446 12.8857 18.3969 13.1985 18.8033ZM1.13332 19.3325H2.26664C2.57973 19.3325 2.83343 19.0788 2.83343 18.7657C2.83343 18.4529 2.57973 18.1992 2.26664 18.1992H1.13332V17.0656H9.06681V21.5992H1.13332V19.3325ZM5.66659 22.7325H13.6001V27.2658H5.66659V22.7325ZM1.13332 28.3991H9.06681V32.9324H1.13332V28.3991Z" fill="#8469FE"/>
<path d="M7.36676 18.7657C7.36676 18.4529 7.11306 18.1992 6.79997 18.1992H4.53333C4.22049 18.1992 3.9668 18.4529 3.9668 18.7657C3.9668 19.0788 4.22049 19.3325 4.53333 19.3325H6.79997C7.11306 19.3325 7.36676 19.0788 7.36676 18.7657Z" fill="#8469FE"/>
</g>
<defs>
<clipPath id="clip0_940_487">
<rect width="34" height="34" fill="white"/>
</clipPath>
</defs>
</svg>
