<svg width="355" height="490" viewBox="0 0 355 490" fill="none" xmlns="http://www.w3.org/2000/svg">
<path d="M300.686 0H53.787C24.129 0 0 24.13 0 53.787V436.223C0 465.881 24.129 490 53.787 490H300.686C330.343 490 354.468 465.881 354.468 436.223V53.787C354.468 24.13 330.343 0 300.686 0ZM333.617 436.223C333.617 454.376 318.844 469.149 300.686 469.149H53.787C35.624 469.149 20.851 454.376 20.851 436.223V53.787C20.851 35.624 35.624 20.851 53.787 20.851H300.686C318.844 20.851 333.617 35.624 333.617 53.787V436.223Z" fill="#8469FE"/>
<path d="M62.5532 174.017H291.915V62.5532H62.5532V174.017ZM83.4042 83.4042H271.064V153.165H83.4042V83.4042Z" fill="#8469FE"/>
<path d="M115.073 274.362H83.7959V295.213H115.073V274.362Z" fill="#8469FE"/>
<path d="M192.873 274.362H161.596V295.213H192.873V274.362Z" fill="#8469FE"/>
<path d="M270.678 274.362H239.401V295.213H270.678V274.362Z" fill="#8469FE"/>
<path d="M115.073 340.479H83.7959V361.33H115.073V340.479Z" fill="#8469FE"/>
<path d="M192.873 340.479H161.596V361.33H192.873V340.479Z" fill="#8469FE"/>
<path d="M270.678 340.479H239.401V361.33H270.678V340.479Z" fill="#8469FE"/>
<path d="M115.073 406.596H83.7959V427.447H115.073V406.596Z" fill="#8469FE"/>
<path d="M192.873 406.596H161.596V427.447H192.873V406.596Z" fill="#8469FE"/>
<path d="M270.678 406.596H239.401V427.447H270.678V406.596Z" fill="#8469FE"/>
<path d="M285.5 213.764H222.947V234.615H285.5V213.764Z" fill="#8469FE"/>
<path d="M131.525 213.764H68.9722V234.615H131.525V213.764Z" fill="#8469FE"/>
</svg>
