<svg width="34" height="34" viewBox="0 0 34 34" fill="none" xmlns="http://www.w3.org/2000/svg">
<g clip-path="url(#clip0_1992_838)">
<path d="M18.5054 20.7992C18.0744 20.3465 17.2955 20.346 16.8639 20.7982L13.3137 24.3674C12.9908 24.6927 12.5549 24.8389 12.1285 24.7946C13.5429 23.5759 13.6756 22.505 12.2167 21.2443C11.086 20.2227 10.0069 20.8905 9.17154 21.8765C9.10174 21.4199 9.24454 20.9406 9.58507 20.5967L13.1421 17.0211C13.5884 16.5725 13.5891 15.8413 13.1433 15.391C12.3905 14.7251 11.3449 12.9984 10.2085 14.0857C7.20854 17.2893 2.33194 20.2966 5.848 25.1998L3.3388 27.709C2.87654 28.159 3.59214 28.8735 4.04147 28.4116L10.5063 21.9469C10.7715 21.6704 11.2488 21.6703 11.5139 21.9469C11.9238 22.3255 12.6013 22.9192 12.0385 23.4792L2.7508 32.7672C2.1904 33.3299 1.597 32.6521 1.21847 32.2424C0.45267 31.5047 1.977 30.5929 2.35527 30.098C2.81894 29.6487 2.101 28.9331 1.65274 29.3954C0.637736 30.3729 -0.773131 31.5063 0.515869 32.9452C0.972403 33.4238 1.5228 34.0163 2.247 33.9694C3.29634 34.306 8.01474 28.6532 8.7756 28.1476C13.6343 31.6658 16.6481 26.7055 19.7967 23.7324C20.8685 22.62 19.1576 21.545 18.5054 20.7992ZM6.9158 18.8075L10.9131 14.7863C11.0045 14.7181 11.0535 14.7182 11.1448 14.7863L12.4375 16.0903C12.5006 16.1541 12.5007 16.2573 12.4378 16.3205L8.87994 19.8969C8.14887 20.6352 7.9644 21.7459 8.37907 22.6691L6.55634 24.4918C5.2626 22.8028 5.3846 20.3507 6.9158 18.8075ZM19.0921 23.032C16.391 25.4096 13.6498 30.3982 9.48341 27.4397L11.3225 25.6006C12.2281 25.9812 13.3081 25.7833 14.0185 25.0679L17.5682 21.499C17.6579 21.4297 17.7142 21.4322 17.7999 21.499L19.0924 22.8028C19.1551 22.866 19.155 22.9688 19.0921 23.032Z" fill="#8469FE"/>
<path d="M33.9728 2.24414C34.0176 1.5224 33.43 0.966335 32.9483 0.513002C32.3132 -0.148865 31.1705 -0.148865 30.5354 0.513002L25.2032 5.84527C20.2958 2.32867 17.2921 7.20813 14.0887 10.2061C13.0023 11.3392 14.7283 12.3901 15.3946 13.1409C15.8444 13.5862 16.5755 13.5857 17.0244 13.1394L20.5992 9.58307C20.9436 9.24193 21.423 9.099 21.8797 9.1688C20.8934 10.0051 20.2259 11.0827 21.2475 12.2139C22.5085 13.6735 23.5805 13.5391 24.7978 12.1258C24.842 12.5522 24.6958 12.9881 24.3704 13.3113L20.8014 16.8611C19.7148 17.9941 21.44 19.0443 22.1062 19.795C22.5557 20.241 23.2867 20.2405 23.7357 19.794L27.7632 15.7903C29.0883 14.4771 29.6192 12.5428 29.1488 10.7423C29.0794 10.4769 28.808 10.3178 28.5425 10.3872C28.277 10.4566 28.118 10.7281 28.1874 10.9935C29.3192 14.1954 24.7623 17.0851 23.0352 19.0895C22.972 19.1523 22.8692 19.1523 22.8059 19.0895L21.5024 17.7974C21.4354 17.7115 21.4329 17.6555 21.5022 17.5655L25.0709 14.0161C25.7865 13.3054 25.9844 12.2253 25.6038 11.3198C26.0088 10.6403 34.5468 3.08987 33.9728 2.24414ZM19.8993 8.8778L16.3237 12.4349C16.2604 12.4977 16.1572 12.4977 16.0938 12.4349L14.7897 11.142C14.7214 11.0507 14.7214 11.0017 14.7894 10.9104L18.8104 6.9132C20.3539 5.3816 22.806 5.25967 24.495 6.5534L22.6722 8.37613C21.749 7.9614 20.6382 8.146 19.8993 8.8778ZM32.7704 2.748L23.4824 12.0359C23.3479 12.1705 23.1689 12.2447 22.9786 12.2447C22.5783 12.2899 22.2108 11.7339 21.95 11.5113C21.6738 11.2459 21.6734 10.7689 21.9501 10.5036L31.238 1.21567C31.5031 0.939202 31.9806 0.939202 32.2456 1.21567C32.6556 1.5942 33.333 2.18794 32.7704 2.748Z" fill="#8469FE"/>
<path d="M6.35065 12.092L7.80212 12.6411C8.05199 12.7376 8.34572 12.6114 8.44252 12.3522C8.53959 12.0956 8.41025 11.8089 8.15365 11.7118L6.70219 11.1628C6.10332 10.9258 5.74399 11.8728 6.35065 12.092Z" fill="#8469FE"/>
<path d="M9.65393 9.76846C10.0974 10.2359 10.8221 9.52899 10.3648 9.07419C10.3649 9.07419 9.23607 7.91826 9.23607 7.91826C9.0444 7.72199 8.72987 7.71819 8.53347 7.90992C8.3372 8.10166 8.33347 8.41619 8.52513 8.61252L9.65393 9.76846Z" fill="#8469FE"/>
<path d="M12.3842 7.8477C12.5428 8.47597 13.5177 8.21337 13.3449 7.5945L12.9431 6.07004C12.8732 5.8047 12.6014 5.6463 12.3361 5.71624C12.0708 5.78617 11.9124 6.0579 11.9823 6.32317L12.3842 7.8477Z" fill="#8469FE"/>
</g>
<defs>
<clipPath id="clip0_1992_838">
<rect width="34" height="34" fill="white"/>
</clipPath>
</defs>
</svg>
