<svg width="35" height="35" viewBox="0 0 35 35" fill="none" xmlns="http://www.w3.org/2000/svg">
<path d="M31.9448 1.14648H15.1383C14.7194 1.14648 14.3799 1.48602 14.3799 1.90493V7.81466L15.221 7.29239C15.4351 7.15943 15.6637 7.06974 15.8967 7.02046V2.66338H31.1863V13.6019H15.8968V11.8321L14.3799 12.774V14.3605C14.3799 14.7794 14.7194 15.1189 15.1383 15.1189H31.9448C32.3636 15.1189 32.7032 14.7794 32.7032 14.3605V1.90493C32.7032 1.48602 32.3636 1.14648 31.9448 1.14648Z" fill="#8469FE"/>
<path d="M20.9182 5.35648C20.7186 5.10341 20.3518 5.06014 20.0988 5.25954L17.4863 7.31941C17.7358 7.48245 17.9546 7.70086 18.1221 7.97067C18.1696 8.04703 18.2109 8.12557 18.2475 8.20521L20.8213 6.17583C21.0744 5.97636 21.1177 5.60948 20.9182 5.35648Z" fill="#8469FE"/>
<path d="M8.30806 4.36611C9.51372 4.36611 10.4911 3.38872 10.4911 2.18305C10.4911 0.977386 9.51372 0 8.30806 0C7.10239 0 6.125 0.977386 6.125 2.18305C6.125 3.38872 7.10239 4.36611 8.30806 4.36611Z" fill="#8469FE"/>
<path d="M17.227 8.52646C16.9202 8.03229 16.2709 7.8804 15.7766 8.18719L13.6434 9.51165C13.6345 7.74258 13.6392 8.68143 13.6335 7.54215C13.6266 6.17463 12.5085 5.06201 11.1409 5.06201H10.1046C9.2193 7.35806 9.50449 6.50576 8.75302 8.45468L9.06904 7.07854C9.09092 6.97546 9.07506 6.86799 9.02427 6.77571L8.59607 5.99689L8.97608 5.30585C9.03275 5.20276 8.95803 5.07644 8.84038 5.07644H7.79647C7.67889 5.07644 7.60404 5.20276 7.66078 5.30585L8.04154 5.99833L7.61251 6.77858C7.56275 6.86916 7.54648 6.97443 7.56658 7.07574L7.84035 8.45468C7.69277 8.07194 6.67251 5.42596 6.53216 5.06201H5.47492C4.10739 5.06201 2.98917 6.17456 2.98227 7.54215L2.94337 15.2804C2.9405 15.8622 3.40965 16.3361 3.99139 16.339C3.99323 16.339 3.99494 16.339 3.99679 16.339C4.576 16.339 5.04706 15.8709 5.04993 15.291L5.08883 7.55275C5.08883 7.55152 5.08883 7.55029 5.08883 7.54913C5.09047 7.43428 5.18446 7.34227 5.29931 7.34316C5.41415 7.34398 5.50671 7.43736 5.50671 7.5522L5.50719 18.5157C6.47146 18.4747 7.36492 18.8225 8.03518 19.4333V15.1562H8.58089V20.0626C8.96527 20.6278 9.19024 21.3096 9.19024 22.0432C9.19024 22.7115 9.00349 23.3371 8.67967 23.8705C9.01231 23.8721 9.33537 23.9162 9.64347 23.9977C10.0588 23.6374 10.5585 23.3722 11.1089 23.2365C11.1089 4.14087 11.086 15.9475 11.086 7.55364C11.086 7.43203 11.1844 7.33345 11.306 7.33325C11.4276 7.33297 11.5264 7.43114 11.5269 7.55275C11.5306 8.29151 11.5422 10.6009 11.5462 11.4049C11.5482 11.7862 11.7561 12.1369 12.0899 12.3214C12.4231 12.5055 12.8306 12.4959 13.1551 12.2944L16.8878 9.97684C17.3819 9.67011 17.5339 9.02063 17.227 8.52646Z" fill="#8469FE"/>
<path d="M29.341 24.3793C30.6172 24.3793 31.6518 23.3448 31.6518 22.0686C31.6518 20.7924 30.6172 19.7578 29.341 19.7578C28.0648 19.7578 27.0303 20.7924 27.0303 22.0686C27.0303 23.3448 28.0648 24.3793 29.341 24.3793Z" fill="#8469FE"/>
<path d="M34.9631 27.741C34.9558 26.2934 33.7722 25.1157 32.3246 25.1157C31.7 25.1157 27.0894 25.1157 26.529 25.1157C26.7776 25.5989 26.9189 26.1458 26.9189 26.7256C26.9189 27.3412 26.7545 27.9843 26.4062 28.5564C27.6985 28.6086 28.8308 29.3022 29.4926 30.3267H32.2666V27.768C32.2666 27.6421 32.3664 27.5389 32.4922 27.5345C32.6181 27.5302 32.7248 27.6265 32.7332 27.7521C32.7332 27.7521 32.7332 27.7521 32.7332 27.7522L32.7462 30.3267H34.9762L34.9631 27.741Z" fill="#8469FE"/>
<path d="M19.8558 26.7255C19.8558 26.1356 20.002 25.5796 20.2587 25.0903C18.7542 25.0903 16.9876 25.0903 15.1135 25.0903C15.3509 25.5647 15.4852 26.099 15.4852 26.6646C15.4852 27.3291 15.2986 27.9583 14.9746 28.4919C16.0381 28.4969 17.0194 28.9388 17.7283 29.6722C18.4156 29.0008 19.3525 28.5844 20.3831 28.5788C20.0253 28.0011 19.8558 27.3523 19.8558 26.7255Z" fill="#8469FE"/>
<path d="M18.1028 19.7324C16.8267 19.7324 15.792 20.7668 15.792 22.0432C15.792 23.3166 16.8247 24.3539 18.1028 24.3539C19.3687 24.3539 20.4135 23.3309 20.4135 22.0432C20.4135 20.7683 19.381 19.7324 18.1028 19.7324Z" fill="#8469FE"/>
<path d="M8.42331 26.6648C8.42331 26.1007 8.55702 25.5674 8.7932 25.0939C8.6936 25.089 9.11257 25.0906 2.67607 25.0906C1.23588 25.0906 0.0448535 26.2621 0.037539 27.7158L0.0244141 30.3269C1.04345 30.3269 1.24845 30.3269 2.25436 30.3269L2.26742 27.7271C2.2681 27.5983 2.37276 27.4946 2.50141 27.4949C2.63006 27.4953 2.73411 27.5996 2.73411 27.7283V30.3269H5.85997C6.53365 29.25 7.692 28.5737 8.95275 28.5218C8.61054 27.9707 8.42331 27.3347 8.42331 26.6648Z" fill="#8469FE"/>
<path d="M5.65938 19.7324C4.38325 19.7324 3.34863 20.767 3.34863 22.0432C3.34863 23.3136 4.37717 24.3539 5.65938 24.3539C6.92649 24.3539 7.9702 23.3275 7.9702 22.0432C7.9702 20.7669 6.93558 19.7324 5.65938 19.7324Z" fill="#8469FE"/>
<path d="M28.8841 32.3889C28.8769 30.9412 27.6933 29.7635 26.2456 29.7635C26.0921 29.7635 20.5739 29.7635 20.4005 29.7635C18.9529 29.7635 17.6934 30.9412 17.686 32.3888L17.6672 32.3279C17.6601 30.8861 16.4818 29.7026 15.0288 29.7026C13.351 29.7026 10.9412 29.7026 9.18359 29.7026C7.73601 29.7026 6.47649 30.8803 6.46918 32.3279L6.45605 34.9998H8.686L8.69906 32.3391C8.6996 32.2282 8.78977 32.1388 8.90058 32.1391C9.01139 32.1394 9.10101 32.2293 9.10101 32.3401V34.9999C10.4081 34.9999 13.7825 34.9999 15.0067 34.9999V32.3401C15.0067 32.2215 15.1027 32.1252 15.2214 32.1249C15.34 32.1246 15.4367 32.2204 15.4373 32.339L15.4504 34.9998C15.9062 34.9998 19.4315 34.9998 19.9029 34.9998L19.9159 32.4C19.9159 32.4 19.9159 32.4 19.9159 32.3999C19.9165 32.2891 20.0067 32.1997 20.1175 32.2C20.2283 32.2003 20.3179 32.2902 20.3179 32.401V34.9998C21.625 34.9998 24.9993 34.9998 26.2236 34.9998V32.401C26.2236 32.2824 26.3196 32.1861 26.4383 32.1858C26.5569 32.1855 26.6535 32.2813 26.6542 32.4L26.6672 34.9997H28.8972L28.8841 32.3889Z" fill="#8469FE"/>
<path d="M12.0262 28.9934C13.3173 28.9934 14.364 27.9467 14.364 26.6556C14.364 25.3645 13.3173 24.3179 12.0262 24.3179C10.7351 24.3179 9.68848 25.3645 9.68848 26.6556C9.68848 27.9467 10.7351 28.9934 12.0262 28.9934Z" fill="#8469FE"/>
<path d="M23.3836 29.0539C24.6747 29.0539 25.7214 28.0073 25.7214 26.7162C25.7214 25.4251 24.6747 24.3784 23.3836 24.3784C22.0925 24.3784 21.0459 25.4251 21.0459 26.7162C21.0459 28.0073 22.0925 29.0539 23.3836 29.0539Z" fill="#8469FE"/>
</svg>
