<svg width="208" height="208" viewBox="0 0 208 208" fill="none" xmlns="http://www.w3.org/2000/svg">
<path d="M111.298 208H198.877V120.421H111.298V208ZM118.597 127.719H191.579V200.702H158.737V154.774L174.403 170.44L179.562 165.28L155.088 140.805L130.613 165.28L135.773 170.44L151.439 154.774V200.702H118.597V127.719Z" fill="#8469FE"/>
<path d="M104 51.0878H169.684C171.698 51.0878 173.333 49.4566 173.333 47.4387C173.333 45.4207 171.698 43.7896 169.684 43.7896H104C101.985 43.7896 100.351 45.4207 100.351 47.4387C100.351 49.4566 101.985 51.0878 104 51.0878Z" fill="#8469FE"/>
<path d="M173.333 98.5263C173.333 96.5084 171.698 94.8772 169.684 94.8772H104C101.985 94.8772 100.351 96.5084 100.351 98.5263C100.351 100.544 101.985 102.175 104 102.175H169.684C171.698 102.175 173.333 100.544 173.333 98.5263Z" fill="#8469FE"/>
<path d="M80.5722 26.4235C79.0469 25.1098 76.737 25.2813 75.427 26.8176L52.6273 53.4124L38.6803 42.954C37.0674 41.7498 34.7831 42.0709 33.5715 43.6838C32.36 45.2931 32.6885 47.5811 34.3014 48.7889L50.9815 61.3018C51.6383 61.7944 52.4047 62.0316 53.171 62.0316C54.2037 62.0316 55.2254 61.5973 55.9443 60.7544L80.9663 31.5614C82.2764 30.0361 82.1012 27.7371 80.5722 26.4235Z" fill="#8469FE"/>
<path d="M80.5722 77.5111C79.0469 76.1974 76.737 76.3689 75.427 77.9052L52.6273 104.5L38.6803 94.0416C37.0674 92.8338 34.7831 93.1622 33.5715 94.7715C32.36 96.3807 32.6885 98.6687 34.3014 99.8766L50.9815 112.389C51.6383 112.882 52.4047 113.119 53.171 113.119C54.2037 113.119 55.2254 112.685 55.9443 111.842L80.9663 82.6491C82.2764 81.1237 82.1012 78.8248 80.5722 77.5111Z" fill="#8469FE"/>
<path d="M75.4233 132.646L52.6236 159.237L38.6803 148.779C37.0674 147.571 34.7831 147.899 33.5715 149.508C32.36 151.118 32.6885 153.406 34.3014 154.614L50.9815 167.126C51.6383 167.619 52.4047 167.856 53.171 167.856C54.2037 167.856 55.2254 167.422 55.9443 166.579L80.9663 137.39C82.2764 135.861 82.1012 133.558 80.5722 132.248C79.0433 130.938 76.737 131.113 75.4233 132.646Z" fill="#8469FE"/>
<path d="M158.095 0H49.9053C25.4051 0 5.47363 19.9315 5.47363 44.4317V152.621C5.47363 177.121 25.4051 197.053 49.9053 197.053H82.1052C84.1195 197.053 85.7543 195.421 85.7543 193.404C85.7543 191.386 84.1195 189.754 82.1052 189.754H49.9053C29.4301 189.754 12.7719 173.1 12.7719 152.621V44.4317C12.7719 23.9528 29.4301 7.29825 49.9053 7.29825H158.095C178.57 7.29825 195.228 23.9528 195.228 44.4317V109.474C195.228 111.492 196.863 113.123 198.877 113.123C200.891 113.123 202.526 111.492 202.526 109.474V44.4317C202.526 19.9315 182.595 0 158.095 0Z" fill="#8469FE"/>
</svg>
