<svg width="34" height="34" viewBox="0 0 34 34" fill="none" xmlns="http://www.w3.org/2000/svg">
<path d="M31.4544 26.7384V14.4311H34V8.1777L17 0.0229492L0 8.1777V14.4311H2.54555V26.7384H6.64063e-05V33.9767H34V26.7384H31.4544ZM32.0078 31.9845H1.99225V28.7306H32.0078V31.9845ZM1.99219 9.43159L16.9999 2.23248L32.0077 9.43159V12.4389H1.99219V9.43159ZM13.8788 14.4311H20.121V26.7384H13.8788V14.4311ZM22.1133 26.7384V14.4311H25.2123V26.7384H22.1133ZM11.8867 14.4311V26.7384H8.78774V14.4311H11.8867ZM27.2044 26.7384V14.4311H29.4623V26.7384H27.2044ZM6.79562 14.4311V26.7384H4.53774V14.4311H6.79562Z" fill="#8469FE"/>
<path d="M16.9994 6.86285L24.0357 10.2381L24.8973 8.44193L16.9994 4.65332L9.10156 8.44193L9.96318 10.2381L16.9994 6.86285Z" fill="#8469FE"/>
</svg>
