<svg width="256" height="240" viewBox="0 0 256 240" fill="none" xmlns="http://www.w3.org/2000/svg">
<path d="M84.635 20.256C103.018 20.256 117.921 35.159 117.921 53.542C117.921 71.925 103.018 86.828 84.635 86.828C66.252 86.828 51.349 71.925 51.349 53.542C51.349 35.159 66.251 20.256 84.635 20.256ZM31.002 145.011C31.002 142.512 32.608 140.817 35.196 140.817C37.784 140.817 39.39 142.423 39.39 145.011V237.997H130.859V145.011C130.859 142.512 132.465 140.817 135.053 140.817C137.552 140.817 139.247 142.423 139.247 145.011V237.997H168.339V136.623C168.339 113.689 149.599 95.038 126.754 95.038H118.366L93.915 133.053L90.97 104.586L94.986 94.948H76.96L80.976 104.586L77.853 133.231L53.401 95.038H43.585C20.651 95.038 2 113.778 2 136.623V237.998H31.092V145.012H31.002V145.011ZM239.596 75.175H239.679C239.554 75.092 239.388 75.05 239.347 74.967C239.388 75.051 239.513 75.134 239.596 75.175ZM246.859 31.926V6.4C246.651 3.951 244.618 2 242.086 2C240.343 2 238.807 2.996 237.977 4.366C227.019 13.248 213.239 24.663 192.611 24.663H168.288C167.997 24.663 167.665 24.663 167.375 24.746C167.292 24.746 167.292 24.746 167.25 24.746C159.281 24.704 152.847 31.138 152.847 39.107C152.847 47.076 159.28 53.51 167.25 53.51C167.333 53.51 167.333 53.51 167.375 53.51C167.666 53.51 167.998 53.593 168.288 53.593H171.318L178.25 99L198.879 96.344L197.841 87.96L202.033 87.337L200.829 79.368L196.761 79.991L192.361 53.51C194.395 53.51 196.221 53.593 197.383 53.718C216.393 55.337 228.762 66.211 238.848 74.471C238.973 74.596 239.18 74.762 239.346 74.886C239.471 74.969 239.637 75.011 239.678 75.094C240.384 75.509 241.214 75.717 242.044 75.717C244.41 75.717 246.444 73.974 246.734 71.649H246.817V46.289C250.802 46.289 253.998 43.093 253.998 39.108C254.081 35.122 250.844 31.926 246.859 31.926ZM239.596 65.961C224.903 54.713 214.153 48.362 199.833 46.744V31.511C214.153 29.892 224.944 23.459 239.596 12.128V65.961Z" fill="#8469FE"/>
</svg>
