<svg width="35" height="35" viewBox="0 0 35 35" fill="none" xmlns="http://www.w3.org/2000/svg">
<g clip-path="url(#clip0_1992_872)">
<path d="M17.5 7.06836C10.8129 7.06836 4.74864 10.7269 0.273857 16.6695C-0.0912857 17.1563 -0.0912857 17.8365 0.273857 18.3233C4.74864 24.273 10.8129 27.9316 17.5 27.9316C24.1871 27.9316 30.2514 24.273 34.7261 18.3305C35.0913 17.8436 35.0913 17.1635 34.7261 16.6766C30.2514 10.7269 24.1871 7.06836 17.5 7.06836ZM17.9797 24.8458C13.5407 25.125 9.87496 21.4664 10.1542 17.0203C10.3833 13.3545 13.3546 10.3833 17.0203 10.1542C21.4593 9.87495 25.125 13.5335 24.8458 17.9797C24.6095 21.6383 21.6383 24.6095 17.9797 24.8458ZM17.7577 21.4521C15.3664 21.6025 13.3904 19.6336 13.5479 17.2422C13.6696 15.2662 15.2733 13.6696 17.2494 13.5407C19.6407 13.3903 21.6168 15.3592 21.4593 17.7506C21.3304 19.7338 19.7267 21.3304 17.7577 21.4521Z" fill="#8469FE"/>
</g>
<defs>
<clipPath id="clip0_1992_872">
<rect width="35" height="35" fill="white"/>
</clipPath>
</defs>
</svg>
