<svg width="43" height="43" viewBox="0 0 43 43" fill="none" xmlns="http://www.w3.org/2000/svg">
<g clip-path="url(#clip0_2006_711)">
<path d="M42.4262 7.62382H6.76815V1.87847C6.76815 1.5617 6.51114 1.30469 6.19436 1.30469C5.87758 1.30469 5.62057 1.5617 5.62057 1.87847V7.62382H0.573787C0.257009 7.62382 0 7.88045 0 8.19761C0 8.51438 0.257009 8.77139 0.573787 8.77139H5.62057V41.0873C5.62057 41.4044 5.87758 41.6611 6.19436 41.6611C6.51114 41.6611 6.76815 41.4044 6.76815 41.0873V8.77139H16.1101V11.5096C14.9704 11.7367 14.0679 12.6067 13.7989 13.7367H11.9367C10.5643 13.7386 9.45217 14.8507 9.4503 16.2232V33.4368C9.45217 34.8096 10.5643 35.9217 11.9367 35.9232H38.7134C40.0863 35.9217 41.1984 34.8096 41.1999 33.4368V16.2232C41.1984 14.8507 40.0863 13.7386 38.7134 13.7367H36.8516C36.5827 12.6067 35.6798 11.7367 34.5404 11.5096V8.77139H42.4262C42.743 8.77139 43 8.51438 43 8.19761C43 7.88045 42.743 7.62382 42.4262 7.62382V7.62382ZM16.6839 12.6007C17.6873 12.6007 18.5009 13.4144 18.5009 14.4177C18.5009 15.4211 17.6873 16.2347 16.6839 16.2347C15.6802 16.2347 14.8669 15.4211 14.8669 14.4177C14.868 13.4147 15.6805 12.6019 16.6839 12.6007ZM40.0523 16.2232V33.4368C40.0515 34.176 39.4527 34.7749 38.7134 34.7756H11.9367C11.1978 34.7749 10.599 34.176 10.5979 33.4368V16.2232C10.599 15.4843 11.1978 14.8854 11.9367 14.8843H13.7563C13.9857 16.3233 15.2266 17.3819 16.6835 17.3819C18.1404 17.3819 19.3814 16.3233 19.6111 14.8843H31.039C31.2688 16.3233 32.5097 17.3819 33.9666 17.3819C35.4235 17.3819 36.6645 16.3233 36.8942 14.8843H38.7134C39.4527 14.8854 40.0515 15.4843 40.0523 16.2232ZM35.7836 14.4177C35.7836 15.4211 34.9704 16.2347 33.9666 16.2347C32.9632 16.2347 32.1496 15.4211 32.1496 14.4177C32.1496 13.4144 32.9632 12.6007 33.9666 12.6007C34.9696 12.6019 35.7825 13.4147 35.7836 14.4177ZM33.3928 11.5096C32.2539 11.7367 31.351 12.6067 31.0824 13.7367H19.5682C19.2992 12.6067 18.3967 11.7367 17.2573 11.5096V8.77139H33.3928V11.5096Z" fill="#8469FE"/>
<path d="M19.8958 21.1825H18.9499V20.1993C18.9499 19.8825 18.6933 19.6255 18.3761 19.6255H17.5506V18.9195C17.5506 18.6027 17.2935 18.3457 16.9768 18.3457C16.6596 18.3457 16.403 18.6027 16.403 18.9195V19.6255H15.6779C15.3607 19.6255 15.1041 19.8825 15.1041 20.1993V21.1825H14.1583C13.8415 21.1825 13.5845 21.4395 13.5845 21.7563V32.7165C13.5845 33.0333 13.8415 33.2903 14.1583 33.2903H19.8961C20.2133 33.2903 20.4699 33.0333 20.4699 32.7165V21.7563C20.4699 21.4392 20.2129 21.1821 19.8958 21.1825ZM16.2509 20.7731H17.8023V21.1825H16.2509V20.7731ZM17.4822 32.1428H16.5715V30.7311H17.4822V32.1428ZM19.322 32.1428H18.6298V30.1573C18.6298 29.8405 18.3728 29.5835 18.056 29.5835H15.9977C15.6805 29.5835 15.4239 29.8405 15.4239 30.1573V32.1428H14.7317V22.3301H19.322V32.1428Z" fill="#8469FE"/>
<path d="M15.9202 26.5206H18.1351C18.4518 26.5206 18.7088 26.2636 18.7088 25.9468C18.7088 25.6297 18.4518 25.373 18.1351 25.373H15.9202C15.6031 25.373 15.3464 25.6297 15.3464 25.9468C15.3464 26.2636 15.6031 26.5206 15.9202 26.5206Z" fill="#8469FE"/>
<path d="M15.9202 28.6073H18.1351C18.4518 28.6073 18.7088 28.3507 18.7088 28.0335C18.7088 27.7167 18.4518 27.4597 18.1351 27.4597H15.9202C15.6031 27.4597 15.3464 27.7167 15.3464 28.0335C15.3464 28.3507 15.6031 28.6073 15.9202 28.6073Z" fill="#8469FE"/>
<path d="M15.9202 24.4339H18.1351C18.4518 24.4339 18.7088 24.1769 18.7088 23.8602C18.7088 23.5434 18.4518 23.2864 18.1351 23.2864H15.9202C15.6031 23.2864 15.3464 23.5434 15.3464 23.8602C15.3464 24.1769 15.6031 24.4339 15.9202 24.4339Z" fill="#8469FE"/>
<path d="M24.475 24C24.4383 24 24.4083 23.9883 24.385 23.965C24.3617 23.9417 24.35 23.9117 24.35 23.875V20.625C24.35 20.5883 24.3617 20.5583 24.385 20.535C24.4083 20.5117 24.4383 20.5 24.475 20.5H26.77C26.8067 20.5 26.8367 20.5117 26.86 20.535C26.8867 20.5583 26.9 20.5883 26.9 20.625V21.13C26.9 21.1667 26.8867 21.1967 26.86 21.22C26.8367 21.2433 26.8067 21.255 26.77 21.255H25.23V21.99H26.67C26.7067 21.99 26.7367 22.0033 26.76 22.03C26.7867 22.0533 26.8 22.0833 26.8 22.12V22.62C26.8 22.6533 26.7867 22.6833 26.76 22.71C26.7367 22.7333 26.7067 22.745 26.67 22.745H25.23V23.875C25.23 23.9117 25.2183 23.9417 25.195 23.965C25.1717 23.9883 25.1417 24 25.105 24H24.475ZM28.567 24.05C28.287 24.05 28.0503 24.005 27.857 23.915C27.667 23.825 27.5203 23.6967 27.417 23.53C27.317 23.36 27.2603 23.1583 27.247 22.925C27.2437 22.8583 27.242 22.7833 27.242 22.7C27.242 22.6133 27.2437 22.5383 27.247 22.475C27.2603 22.2383 27.3203 22.0367 27.427 21.87C27.5337 21.7033 27.682 21.575 27.872 21.485C28.0653 21.395 28.297 21.35 28.567 21.35C28.8403 21.35 29.072 21.395 29.262 21.485C29.4553 21.575 29.6053 21.7033 29.712 21.87C29.8187 22.0367 29.8787 22.2383 29.892 22.475C29.8953 22.5383 29.897 22.6133 29.897 22.7C29.897 22.7833 29.8953 22.8583 29.892 22.925C29.8787 23.1583 29.8203 23.36 29.717 23.53C29.617 23.6967 29.4703 23.825 29.277 23.915C29.087 24.005 28.8503 24.05 28.567 24.05ZM28.567 23.44C28.717 23.44 28.8253 23.395 28.892 23.305C28.962 23.215 29.002 23.08 29.012 22.9C29.0153 22.85 29.017 22.7833 29.017 22.7C29.017 22.6167 29.0153 22.55 29.012 22.5C29.002 22.3233 28.962 22.19 28.892 22.1C28.8253 22.0067 28.717 21.96 28.567 21.96C28.4203 21.96 28.312 22.0067 28.242 22.1C28.172 22.19 28.1337 22.3233 28.127 22.5C28.1237 22.55 28.122 22.6167 28.122 22.7C28.122 22.7833 28.1237 22.85 28.127 22.9C28.1337 23.08 28.172 23.215 28.242 23.305C28.312 23.395 28.4203 23.44 28.567 23.44ZM30.5138 24C30.4771 24 30.4471 23.9883 30.4237 23.965C30.4004 23.9417 30.3888 23.9117 30.3888 23.875V21.525C30.3888 21.4917 30.4004 21.4633 30.4237 21.44C30.4471 21.4133 30.4771 21.4 30.5138 21.4H31.0888C31.1254 21.4 31.1554 21.4133 31.1788 21.44C31.2021 21.4633 31.2138 21.4917 31.2138 21.525V21.725C31.3038 21.6217 31.4104 21.5417 31.5338 21.485C31.6604 21.4283 31.8021 21.4 31.9588 21.4H32.1788C32.2121 21.4 32.2404 21.4117 32.2638 21.435C32.2904 21.4583 32.3038 21.4883 32.3038 21.525V22.04C32.3038 22.0733 32.2904 22.1033 32.2638 22.13C32.2404 22.1533 32.2121 22.165 32.1788 22.165H31.6938C31.5571 22.165 31.4504 22.2033 31.3738 22.28C31.3004 22.3533 31.2638 22.4583 31.2638 22.595V23.875C31.2638 23.9117 31.2504 23.9417 31.2238 23.965C31.2004 23.9883 31.1704 24 31.1338 24H30.5138ZM24.475 30C24.4383 30 24.4083 29.9883 24.385 29.965C24.3617 29.9417 24.35 29.9117 24.35 29.875V26.625C24.35 26.5883 24.3617 26.5583 24.385 26.535C24.4083 26.5117 24.4383 26.5 24.475 26.5H25.835C26.265 26.5 26.6033 26.6 26.85 26.8C27.1 26.9967 27.225 27.2767 27.225 27.64C27.225 27.8767 27.1667 28.0767 27.05 28.24C26.9367 28.4033 26.7867 28.5267 26.6 28.61L27.29 29.84C27.3 29.86 27.305 29.8783 27.305 29.895C27.305 29.9217 27.2933 29.9467 27.27 29.97C27.25 29.99 27.225 30 27.195 30H26.535C26.4717 30 26.425 29.985 26.395 29.955C26.365 29.9217 26.3433 29.8917 26.33 29.865L25.76 28.765H25.245V29.875C25.245 29.9117 25.2333 29.9417 25.21 29.965C25.1867 29.9883 25.1567 30 25.12 30H24.475ZM25.245 28.06H25.825C25.9817 28.06 26.0983 28.0217 26.175 27.945C26.255 27.8683 26.295 27.7633 26.295 27.63C26.295 27.5 26.2567 27.395 26.18 27.315C26.1067 27.235 25.9883 27.195 25.825 27.195H25.245V28.06ZM28.9179 30.05C28.5245 30.05 28.2112 29.9433 27.9779 29.73C27.7445 29.5167 27.6229 29.2 27.6129 28.78C27.6129 28.7567 27.6129 28.7267 27.6129 28.69C27.6129 28.6533 27.6129 28.625 27.6129 28.605C27.6229 28.3417 27.6812 28.1167 27.7879 27.93C27.8979 27.74 28.0479 27.5967 28.2379 27.5C28.4312 27.4 28.6562 27.35 28.9129 27.35C29.2062 27.35 29.4479 27.4083 29.6379 27.525C29.8312 27.6417 29.9762 27.8 30.0729 28C30.1695 28.2 30.2179 28.4283 30.2179 28.685V28.805C30.2179 28.8417 30.2045 28.8717 30.1779 28.895C30.1545 28.9183 30.1262 28.93 30.0929 28.93H28.4929C28.4929 28.9333 28.4929 28.9383 28.4929 28.945C28.4929 28.9517 28.4929 28.9583 28.4929 28.965C28.4962 29.0617 28.5129 29.15 28.5429 29.23C28.5729 29.31 28.6195 29.3733 28.6829 29.42C28.7462 29.4667 28.8229 29.49 28.9129 29.49C28.9795 29.49 29.0345 29.48 29.0779 29.46C29.1245 29.4367 29.1629 29.4117 29.1929 29.385C29.2229 29.355 29.2462 29.33 29.2629 29.31C29.2929 29.2767 29.3162 29.2567 29.3329 29.25C29.3529 29.24 29.3829 29.235 29.4229 29.235H30.0429C30.0762 29.235 30.1029 29.245 30.1229 29.265C30.1462 29.2817 30.1562 29.3067 30.1529 29.34C30.1495 29.3967 30.1212 29.465 30.0679 29.545C30.0145 29.625 29.9362 29.705 29.8329 29.785C29.7329 29.8617 29.6062 29.925 29.4529 29.975C29.2995 30.025 29.1212 30.05 28.9179 30.05ZM28.4929 28.435H29.3379V28.425C29.3379 28.3183 29.3212 28.225 29.2879 28.145C29.2579 28.065 29.2095 28.0033 29.1429 27.96C29.0795 27.9167 29.0029 27.895 28.9129 27.895C28.8229 27.895 28.7462 27.9167 28.6829 27.96C28.6229 28.0033 28.5762 28.065 28.5429 28.145C28.5095 28.225 28.4929 28.3183 28.4929 28.425V28.435ZM30.8116 30C30.7749 30 30.7449 29.9883 30.7216 29.965C30.6983 29.9417 30.6866 29.9117 30.6866 29.875V27.525C30.6866 27.4883 30.6983 27.4583 30.7216 27.435C30.7449 27.4117 30.7749 27.4 30.8116 27.4H31.3866C31.4233 27.4 31.4533 27.4117 31.4766 27.435C31.4999 27.4583 31.5116 27.4883 31.5116 27.525V27.715C31.5983 27.6117 31.7116 27.525 31.8516 27.455C31.9916 27.385 32.1566 27.35 32.3466 27.35C32.5399 27.35 32.7099 27.3933 32.8566 27.48C33.0066 27.5667 33.1233 27.695 33.2066 27.865C33.2933 28.0317 33.3366 28.2367 33.3366 28.48V29.875C33.3366 29.9117 33.3233 29.9417 33.2966 29.965C33.2733 29.9883 33.2449 30 33.2116 30H32.5816C32.5483 30 32.5183 29.9883 32.4916 29.965C32.4683 29.9417 32.4566 29.9117 32.4566 29.875V28.51C32.4566 28.3533 32.4183 28.2333 32.3416 28.15C32.2683 28.0633 32.1583 28.02 32.0116 28.02C31.8749 28.02 31.7649 28.0633 31.6816 28.15C31.6016 28.2333 31.5616 28.3533 31.5616 28.51V29.875C31.5616 29.9117 31.5483 29.9417 31.5216 29.965C31.4983 29.9883 31.4699 30 31.4366 30H30.8116ZM35.2002 30C34.9869 30 34.8019 29.9667 34.6452 29.9C34.4919 29.83 34.3735 29.7233 34.2902 29.58C34.2069 29.4333 34.1652 29.245 34.1652 29.015V28.055H33.7752C33.7385 28.055 33.7069 28.0433 33.6802 28.02C33.6569 27.9967 33.6452 27.9667 33.6452 27.93V27.525C33.6452 27.4883 33.6569 27.4583 33.6802 27.435C33.7069 27.4117 33.7385 27.4 33.7752 27.4H34.1652V26.575C34.1652 26.5383 34.1769 26.5083 34.2002 26.485C34.2269 26.4617 34.2569 26.45 34.2902 26.45H34.8702C34.9069 26.45 34.9369 26.4617 34.9602 26.485C34.9835 26.5083 34.9952 26.5383 34.9952 26.575V27.4H35.6202C35.6569 27.4 35.6869 27.4117 35.7102 27.435C35.7335 27.4583 35.7452 27.4883 35.7452 27.525V27.93C35.7452 27.9667 35.7335 27.9967 35.7102 28.02C35.6869 28.0433 35.6569 28.055 35.6202 28.055H34.9952V28.945C34.9952 29.0583 35.0169 29.1483 35.0602 29.215C35.1035 29.2817 35.1769 29.315 35.2802 29.315H35.6652C35.7019 29.315 35.7319 29.3267 35.7552 29.35C35.7785 29.3733 35.7902 29.4033 35.7902 29.44V29.875C35.7902 29.9117 35.7785 29.9417 35.7552 29.965C35.7319 29.9883 35.7019 30 35.6652 30H35.2002Z" fill="#8469FE"/>
</g>
<defs>
<clipPath id="clip0_2006_711">
<rect width="43" height="43" fill="white"/>
</clipPath>
</defs>
</svg>
