<svg width="35" height="35" viewBox="0 0 35 35" fill="none" xmlns="http://www.w3.org/2000/svg">
<g clip-path="url(#clip0_882_1008)">
<path d="M10.6179 3.90619C7.09532 3.90619 4.22949 6.94476 4.22949 10.6796C4.22949 14.4145 7.09532 17.4531 10.6179 17.4531C14.1406 17.4531 17.0065 14.4145 17.0065 10.6796C17.0065 6.94476 14.1406 3.90619 10.6179 3.90619Z" fill="#8469FE"/>
<path d="M25.1424 4.87549C25.1279 4.87549 25.1133 4.87556 25.0989 4.87562C23.6205 4.88786 22.2397 5.51205 21.2107 6.63335C20.1998 7.73482 19.6502 9.18794 19.6628 10.7249C19.6755 12.2619 20.2491 13.7057 21.278 14.7905C22.315 15.8836 23.6887 16.4839 25.1506 16.4839C25.1653 16.4839 25.18 16.4839 25.1948 16.4838C26.6731 16.4716 28.054 15.8473 29.0829 14.7261C30.0938 13.6246 30.6435 12.1715 30.6309 10.6344C30.6045 7.44929 28.1467 4.87549 25.1424 4.87549Z" fill="#8469FE"/>
<path d="M25.4122 17.5928H24.8817C22.4112 17.5928 20.1567 18.532 18.4546 20.0715C18.8805 20.3982 19.2858 20.7544 19.67 21.1386C20.8034 22.272 21.6935 23.5927 22.3155 25.0638C22.8761 26.3886 23.196 27.7845 23.2705 29.2221H35.0003V27.1802C35.0003 21.8939 30.6991 17.5928 25.4122 17.5928Z" fill="#8469FE"/>
<path d="M21.2153 29.2221C21.0219 26.1056 19.4421 23.3644 17.0844 21.6076C15.3692 20.3292 13.2419 19.5725 10.9375 19.5725H10.299C4.61084 19.5726 0 24.1833 0 29.8715V31.0938H21.2358V29.8715C21.2358 29.6535 21.229 29.4368 21.2153 29.2221Z" fill="#8469FE"/>
</g>
<defs>
<clipPath id="clip0_882_1008">
<rect width="35" height="35" fill="white"/>
</clipPath>
</defs>
</svg>
