<svg width="512" height="512" viewBox="0 0 512 512" fill="none" xmlns="http://www.w3.org/2000/svg">
<path d="M341.333 187.733C341.333 183.023 337.51 179.2 332.8 179.2H281.6C276.89 179.2 273.067 183.023 273.067 187.733V238.933C273.067 243.643 276.89 247.466 281.6 247.466H332.8C337.51 247.466 341.333 243.643 341.333 238.933V187.733ZM324.267 230.4H290.134V196.267H324.267V230.4Z" fill="#8469FE"/>
<path d="M107.665 204.152C108.723 204.587 109.832 204.8 110.933 204.8C113.152 204.8 115.336 203.93 116.966 202.3L256.026 63.249L395.034 202.3C397.466 204.741 401.135 205.457 404.335 204.152C407.518 202.829 409.6 199.715 409.6 196.267V68.267C409.6 63.557 405.777 59.734 401.067 59.734H315.734C311.024 59.734 307.201 63.557 307.201 68.267C307.201 72.977 311.024 76.8 315.734 76.8H392.534V175.659L262.084 45.167C258.884 41.967 253.167 41.967 249.967 45.167L119.467 175.667V76.8H162.134C166.844 76.8 170.667 72.977 170.667 68.267V59.734H187.734V68.267C187.734 72.977 191.557 76.8 196.267 76.8C200.977 76.8 204.8 72.977 204.8 68.267V51.2C204.8 46.49 200.977 42.667 196.267 42.667H162.134C157.424 42.667 153.601 46.49 153.601 51.2V59.733H110.934C106.224 59.733 102.401 63.556 102.401 68.266V196.266C102.4 199.714 104.482 202.829 107.665 204.152Z" fill="#8469FE"/>
<path d="M93.867 366.933H119.467V392.533C119.467 397.243 123.29 401.066 128 401.066H384C388.71 401.066 392.533 397.243 392.533 392.533V366.933H418.133C422.843 366.933 426.666 363.11 426.666 358.4C426.666 353.69 422.843 349.867 418.133 349.867H392.533V217.6C392.533 212.89 388.71 209.067 384 209.067C379.29 209.067 375.467 212.89 375.467 217.6V384H238.933V290.133C238.933 285.423 235.11 281.6 230.4 281.6H179.2C174.49 281.6 170.667 285.423 170.667 290.133V384H136.534V217.6C136.534 212.89 132.711 209.067 128.001 209.067C123.291 209.067 119.468 212.89 119.468 217.6V349.867H93.868C89.158 349.867 85.335 353.69 85.335 358.4C85.335 363.11 89.156 366.933 93.867 366.933ZM187.733 298.667H221.866V332.8C217.156 332.8 213.333 336.623 213.333 341.333C213.333 346.043 217.156 349.866 221.866 349.866V384H187.733V298.667Z" fill="#8469FE"/>
<path d="M179.2 179.2C174.49 179.2 170.667 183.023 170.667 187.733V238.933C170.667 243.643 174.49 247.466 179.2 247.466H230.4C235.11 247.466 238.933 243.643 238.933 238.933V187.733C238.933 183.023 235.11 179.2 230.4 179.2H179.2V179.2ZM221.867 230.4H187.734V196.267H221.867V230.4Z" fill="#8469FE"/>
<path d="M332.8 281.6H281.6C276.89 281.6 273.067 285.423 273.067 290.133V341.333C273.067 346.043 276.89 349.866 281.6 349.866H332.8C337.51 349.866 341.333 346.043 341.333 341.333V290.133C341.333 285.423 337.51 281.6 332.8 281.6ZM324.267 332.8H290.134V298.667H324.267V332.8Z" fill="#8469FE"/>
<path d="M503.467 358.4C508.177 358.4 512 354.577 512 349.867V324.267C512 291.328 485.205 264.534 452.267 264.534C447.557 264.534 443.734 268.357 443.734 273.067V358.4C443.734 363.11 447.557 366.933 452.267 366.933C475.793 366.933 494.934 386.073 494.934 409.6C494.934 433.126 475.794 452.267 452.267 452.267H426.667V430.2L458.3 398.567C461.637 395.231 461.637 389.837 458.3 386.501C454.964 383.165 449.57 383.165 446.234 386.501L414.601 418.134H88.866L57.233 386.5C53.896 383.164 48.503 383.164 45.167 386.5C41.83 389.837 41.83 395.23 45.167 398.566L79.3 432.7C80.896 434.304 83.072 435.2 85.333 435.2H184.2L167.133 452.267H59.733C36.207 452.267 17.066 433.127 17.066 409.6C17.066 386.074 36.206 366.933 59.733 366.933C61.994 366.933 64.17 366.037 65.766 364.433C67.37 362.837 68.266 360.661 68.266 358.4L68.257 273.067C68.257 268.357 64.434 264.534 59.724 264.534C26.795 264.533 0 291.328 0 324.267V349.867C0 354.577 3.823 358.4 8.533 358.4C13.243 358.4 17.066 354.577 17.066 349.867V324.267C17.066 303.659 31.743 286.422 51.191 282.462L51.2 350.473C22.289 354.628 0 379.554 0 409.6C0 442.539 26.795 469.333 59.733 469.333H452.266C485.205 469.333 511.999 442.538 511.999 409.6C511.999 379.554 489.71 354.628 460.799 350.472V282.461C480.246 286.42 494.932 303.658 494.932 324.266V349.866C494.933 354.577 498.756 358.4 503.467 358.4ZM409.6 452.267H191.266L208.333 435.2H409.6V452.267Z" fill="#8469FE"/>
</svg>
