<svg width="35" height="35" viewBox="0 0 35 35" fill="none" xmlns="http://www.w3.org/2000/svg">
<path d="M35 23.9247C35 22.5896 34.1402 21.4621 32.9492 21.0374V10.4147L35 9.56919L17.5 2.54773L0 9.56919L17.5 16.5907L30.8984 11.2382V21.0374C29.7075 21.4621 28.8477 22.5896 28.8477 23.9247C28.8477 25.1469 29.5695 26.1961 30.6046 26.6919L28.9008 31.8034L30.8454 32.4522L31.9238 29.2168L33.0023 32.4522L34.9469 31.8034L33.2431 26.6919C34.2781 26.1962 35 25.147 35 23.9247Z" fill="#8469FE"/>
<path d="M17.5 18.8007L8.27148 15.0951V17.7723C8.27148 20.6953 12.2389 22.8993 17.5 22.8993C22.7611 22.8993 26.7285 20.6953 26.7285 17.7723V15.0951L17.5 18.8007Z" fill="#8469FE"/>
</svg>
