<svg width="34" height="34" viewBox="0 0 34 34" fill="none" xmlns="http://www.w3.org/2000/svg">
<path d="M34 15.9836L28.9133 13.3131L33.9941 10.0171L17 1.01758L0.00584374 10.0171L5.08664 13.3131L0 15.9836L5.08664 19.2834L0 21.9539L17 32.9822L34 21.9539L28.9134 19.2834L34 15.9836ZM30.0696 10.1907L26.6977 12.3783L23.7476 10.552L26.8999 8.51224L30.0696 10.1907ZM15.1683 13.733L12.2757 15.6047L8.9813 13.4675L11.9579 11.6557L15.1683 13.733ZM13.8455 10.5066L16.8949 8.65043L20.0268 10.5892L17 12.5477L13.8455 10.5066ZM17 14.9182L19.8949 16.7914L17 18.6693L14.1051 16.7914L17 14.9182ZM18.8317 13.7329L21.8991 11.7481L24.8516 13.5758L21.7243 15.6045L18.8317 13.7329ZM24.8854 7.44536L21.8753 9.39298L18.8012 7.48998L21.671 5.7431L24.8854 7.44536ZM17 3.26941L19.6244 4.65922L16.9037 6.31526L14.2964 4.70113L17 3.26941ZM12.2586 5.78043L14.9974 7.47577L11.9902 9.30612L9.11451 7.44536L12.2586 5.78043ZM3.93025 10.1907L7.09988 8.51217L10.1026 10.455L7.12843 12.2654L3.93025 10.1907ZM3.93609 16.1649L7.00166 14.5554L17 21.0415L26.9983 14.5554L30.0639 16.1649L17 24.6397L3.93609 16.1649ZM30.0638 22.1352L17 30.61L3.93609 22.1352L7.00166 20.5257L17 27.0119L26.9983 20.5257L30.0638 22.1352Z" fill="#8469FE"/>
</svg>
