<svg width="225" height="225" viewBox="0 0 225 225" fill="none" xmlns="http://www.w3.org/2000/svg">
<path d="M40.4896 18.6875C28.4486 18.6875 18.6875 28.4486 18.6875 40.4896V59.1771C18.6875 64.3374 14.5041 68.5208 9.34375 68.5208C4.18338 68.5208 0 64.3374 0 59.1771V40.4896C0 18.1277 18.1277 0 40.4896 0H59.1771C64.3374 0 68.5208 4.18338 68.5208 9.34375C68.5208 14.5041 64.3374 18.6875 59.1771 18.6875H40.4896Z" fill="#8469FE"/>
<path d="M205.562 40.4896C205.562 28.4486 195.801 18.6875 183.76 18.6875H165.073C159.913 18.6875 155.729 14.5041 155.729 9.34375C155.729 4.18338 159.913 0 165.073 0H183.76C206.122 0 224.25 18.1277 224.25 40.4896V59.1771C224.25 64.3374 220.066 68.5208 214.906 68.5208C209.746 68.5208 205.562 64.3374 205.562 59.1771V40.4896Z" fill="#8469FE"/>
<path d="M205.562 183.761C205.562 195.801 195.801 205.563 183.76 205.563H165.073C159.913 205.563 155.729 209.746 155.729 214.906C155.729 220.067 159.913 224.25 165.073 224.25H183.76C206.122 224.25 224.25 206.122 224.25 183.761V165.073C224.25 159.913 220.066 155.729 214.906 155.729C209.746 155.729 205.562 159.913 205.562 165.073V183.761Z" fill="#8469FE"/>
<path d="M18.6875 183.761C18.6875 195.801 28.4486 205.563 40.4896 205.563H59.1771C64.3374 205.563 68.5208 209.746 68.5208 214.906C68.5208 220.067 64.3374 224.25 59.1771 224.25H40.4896C18.1277 224.25 0 206.122 0 183.761V165.073C0 159.913 4.18338 155.729 9.34375 155.729C14.5041 155.729 18.6875 159.913 18.6875 165.073V183.761Z" fill="#8469FE"/>
<path d="M65.4063 37.375C49.925 37.375 37.375 49.925 37.375 65.4062V158.841C37.375 174.323 49.925 186.873 65.4063 186.873H158.842C174.323 186.873 186.873 174.323 186.873 158.841V65.4062C186.873 49.925 174.323 37.375 158.842 37.375H65.4063ZM56.0625 65.4062C56.0625 60.2459 60.2459 56.0625 65.4063 56.0625H158.842C164.002 56.0625 168.186 60.2459 168.186 65.4062V158.841C168.186 164.001 164.002 168.185 158.842 168.185H65.4063C60.2459 168.185 56.0625 164.001 56.0625 158.841V65.4062Z" fill="#8469FE"/>
</svg>
