<svg width="512" height="422" viewBox="0 0 512 422" fill="none" xmlns="http://www.w3.org/2000/svg">
<path d="M256.432 68C217.044 68 185 100.045 185 139.432C185 178.82 217.045 210.864 256.432 210.864C295.82 210.864 327.864 178.819 327.864 139.432C327.864 100.045 295.82 68 256.432 68ZM256.431 180.425C233.828 180.425 215.438 162.036 215.438 139.432C215.438 116.828 233.827 98.439 256.431 98.439C279.035 98.439 297.424 116.829 297.424 139.432C297.424 162.036 279.034 180.425 256.431 180.425Z" fill="#8469FE"/>
<path d="M403.703 256.882H339.988C368.357 213.561 383.237 169.173 383.237 127.238C383.237 57.079 326.158 0 255.999 0C185.84 0 128.761 57.079 128.761 127.238C128.761 169.173 143.642 213.561 172.01 256.882H108.295L0 421.572H512L403.703 256.882ZM159.202 127.239C159.201 73.862 202.625 30.439 256 30.439C309.375 30.439 352.799 73.863 352.799 127.238C352.799 180.581 324.301 228.937 300.392 260.11C299.625 261.109 298.859 262.087 298.092 263.065C297.311 264.062 296.529 265.046 295.748 266.021C295.499 266.331 295.25 266.644 295.001 266.952C294.224 267.915 293.449 268.866 292.674 269.806C292.425 270.107 292.177 270.41 291.929 270.709C291.155 271.644 290.383 272.566 289.614 273.476C289.372 273.763 289.129 274.049 288.887 274.334C288.113 275.245 287.342 276.144 286.574 277.03C286.345 277.295 286.116 277.558 285.888 277.82C285.113 278.709 284.343 279.586 283.577 280.45C283.361 280.694 283.146 280.935 282.931 281.177C282.154 282.048 281.382 282.908 280.616 283.751C280.426 283.96 280.238 284.166 280.049 284.373C279.266 285.232 278.486 286.081 277.716 286.91C277.554 287.084 277.392 287.257 277.231 287.431C276.44 288.281 275.653 289.118 274.878 289.936C274.755 290.065 274.634 290.192 274.513 290.319C273.705 291.168 272.906 292.003 272.119 292.816C272.045 292.893 271.972 292.967 271.897 293.044C271.07 293.897 270.252 294.734 269.452 295.546C269.434 295.564 269.416 295.582 269.399 295.6C264.264 300.8 259.689 305.14 256.005 308.508C229.93 284.648 159.202 212.087 159.202 127.239ZM124.712 287.321H194.321C216.697 314.855 237.691 333.228 244.35 338.81C244.352 338.812 244.354 338.813 244.356 338.815C244.597 339.017 244.821 339.204 245.024 339.372C245.038 339.383 245.049 339.393 245.064 339.404C245.46 339.732 245.785 340 246.024 340.193C246.043 340.209 246.054 340.218 246.074 340.234C246.265 340.389 246.403 340.5 246.474 340.557C246.481 340.563 246.498 340.576 246.504 340.581L246.506 340.582H246.507L246.517 340.59L256.003 348.165L265.489 340.59L265.499 340.582H265.5L265.502 340.581C265.508 340.576 265.524 340.563 265.532 340.557C265.603 340.5 265.741 340.39 265.932 340.234C265.95 340.219 265.961 340.21 265.982 340.193C266.22 339.999 266.546 339.731 266.942 339.404C266.956 339.393 266.967 339.383 266.982 339.372C267.185 339.204 267.408 339.017 267.65 338.815C267.652 338.814 267.654 338.812 267.656 338.81C274.316 333.227 295.309 314.855 317.685 287.321H387.294L455.558 391.132H56.448L124.712 287.321Z" fill="#8469FE"/>
</svg>
