<svg width="34" height="34" viewBox="0 0 34 34" fill="none" xmlns="http://www.w3.org/2000/svg">
<g clip-path="url(#clip0_1992_849)">
<path d="M11.4584 26.025C11.4498 25.9825 11.4371 25.9406 11.4205 25.9001C11.4039 25.8603 11.3834 25.8218 11.3595 25.7859C11.3355 25.7494 11.3077 25.7155 11.2771 25.685C11.2466 25.6544 11.2127 25.6265 11.1762 25.6026C11.1403 25.5787 11.1018 25.5581 11.0613 25.5415C11.0214 25.5249 10.9796 25.5116 10.9371 25.5037C10.8514 25.4864 10.7631 25.4864 10.6781 25.5037C10.6356 25.5116 10.5938 25.5249 10.5533 25.5415C10.5134 25.5581 10.4749 25.5787 10.4391 25.6026C10.4025 25.6265 10.3687 25.6544 10.3381 25.685C10.3076 25.7155 10.2797 25.7494 10.2558 25.7859C10.2312 25.8218 10.2113 25.8603 10.1947 25.9001C10.1781 25.9406 10.1648 25.9825 10.1568 26.025C10.1482 26.0675 10.1436 26.1113 10.1436 26.1545C10.1436 26.1976 10.1482 26.2414 10.1568 26.2839C10.1648 26.3264 10.1781 26.3683 10.1947 26.4081C10.2113 26.4486 10.2312 26.4871 10.2558 26.523C10.2797 26.5595 10.3076 26.5934 10.3381 26.6239C10.3687 26.6545 10.4025 26.6824 10.4391 26.7063C10.4749 26.7303 10.5134 26.7508 10.5533 26.7675C10.5938 26.7841 10.6356 26.7973 10.6781 26.8053C10.7206 26.8139 10.7645 26.8186 10.8076 26.8186C10.8508 26.8186 10.8946 26.8139 10.9371 26.8053C10.9796 26.7973 11.0214 26.7841 11.0613 26.7675C11.1018 26.7508 11.1403 26.7302 11.1762 26.7063C11.2127 26.6824 11.2466 26.6545 11.2771 26.6239C11.3077 26.5934 11.3355 26.5595 11.3595 26.523C11.3834 26.4871 11.4039 26.4486 11.4205 26.4081C11.4371 26.3683 11.4498 26.3264 11.4584 26.2839C11.467 26.2414 11.4717 26.1976 11.4717 26.1545C11.4717 26.1113 11.467 26.0675 11.4584 26.025Z" fill="#8469FE"/>
<path d="M30.5464 26.2291C30.5438 26.2224 30.5412 26.2159 30.5384 26.2094C29.9272 24.7792 28.4937 24.2506 26.7973 24.83L22.1709 26.1094C21.9034 25.2993 21.2363 24.61 20.2929 24.2599C20.287 24.2578 20.2812 24.2557 20.2753 24.2537L15.1898 22.5277C14.7666 21.9805 13.4407 20.5806 10.9582 20.5806C9.22336 20.5806 7.68865 21.7707 6.81063 23.0679H0.664062C0.297301 23.0679 0 23.3652 0 23.732V32.1043C0 32.4711 0.297301 32.7684 0.664062 32.7684H4.61238C4.97914 32.7684 5.27644 32.4711 5.27644 32.1043V31.531H7.12805C7.49481 31.531 7.79211 31.2337 7.79211 30.8669V30.6758C8.87148 30.7699 9.22648 30.9747 10.2178 31.5463C10.9801 31.9859 12.1324 32.6503 14.2073 33.5832C14.2169 33.5876 14.2267 33.5917 14.2364 33.5955C14.6347 33.7522 15.4132 33.9983 16.3729 33.9983C17.041 33.9983 17.797 33.8789 18.573 33.5272L28.799 29.8658C28.8172 29.8593 28.8351 29.852 28.8527 29.8439C29.83 29.3943 31.2863 28.127 30.5464 26.2291ZM3.94832 31.4402H1.32812V24.396H3.94832V31.4402ZM6.46398 30.2028H5.27644V24.396H6.46398V30.2028ZM28.322 28.6258L18.1006 32.2855C18.0917 32.2887 18.0795 32.2935 18.0707 32.2971C18.0617 32.3007 18.0527 32.3046 18.0439 32.3086C16.6204 32.9629 15.2672 32.5712 14.7369 32.365C12.7326 31.4632 11.6629 30.8463 10.8813 30.3956C9.79459 29.769 9.27098 29.467 7.79211 29.3449V23.9964C8.42157 22.9647 9.64225 21.9086 10.9583 21.9086C13.2152 21.9086 14.1715 23.3765 14.2091 23.4358C14.2902 23.5677 14.4148 23.6671 14.5614 23.7168L19.839 25.508C20.6819 25.8244 21.1273 26.5462 20.9226 27.2661C20.8281 27.5985 20.6098 27.8742 20.3079 28.0424C20.0086 28.2092 19.6626 28.2504 19.3329 28.1592L13.3833 26.2738C13.0335 26.1629 12.6604 26.3566 12.5497 26.7062C12.4388 27.0558 12.6325 27.429 12.9821 27.5399L18.942 29.4285C18.9483 29.4305 18.9546 29.4325 18.961 29.4342C19.1989 29.5019 19.4412 29.5354 19.6819 29.5354C20.1228 29.5354 20.5587 29.4231 20.9544 29.2026C21.5662 28.8618 22.0086 28.303 22.2001 27.6293C22.2153 27.5755 22.2289 27.5217 22.2406 27.468L27.2266 26.0867C27.9467 25.8407 28.892 25.7521 29.3129 26.7214C29.7485 27.8594 28.6163 28.4854 28.322 28.6258Z" fill="#8469FE"/>
<path d="M23.8438 8.73541C23.8352 8.69291 23.8226 8.65107 23.8053 8.61057C23.7887 8.57072 23.7688 8.53221 23.7442 8.49635C23.7203 8.45982 23.6924 8.42596 23.6619 8.39541C23.6313 8.36486 23.5975 8.33697 23.5609 8.31307C23.5251 8.28916 23.4866 8.26857 23.4467 8.25197C23.4062 8.23537 23.3644 8.22209 23.3225 8.21412C23.2369 8.19686 23.1486 8.19686 23.0629 8.21412C23.0204 8.22209 22.9786 8.23537 22.9387 8.25197C22.8982 8.26857 22.8597 8.28916 22.8238 8.31307C22.7873 8.33697 22.7534 8.36486 22.7229 8.39541C22.6923 8.42596 22.6645 8.45982 22.6405 8.49635C22.6166 8.53221 22.5961 8.57072 22.5795 8.61057C22.5629 8.65107 22.5496 8.69291 22.5416 8.73541C22.533 8.77791 22.5283 8.82174 22.5283 8.8649C22.5283 8.90807 22.533 8.95189 22.5416 8.99439C22.5496 9.03689 22.5629 9.07873 22.5795 9.11857C22.5961 9.15908 22.6166 9.1976 22.6405 9.23346C22.6645 9.26998 22.6923 9.30385 22.7229 9.33439C22.7534 9.36494 22.7873 9.39283 22.8238 9.41674C22.8597 9.44064 22.8982 9.46123 22.9387 9.47783C22.9786 9.49443 23.0204 9.50705 23.0629 9.51568C23.1054 9.52432 23.1492 9.52896 23.1924 9.52896C23.2355 9.52896 23.2794 9.52432 23.3225 9.51568C23.3644 9.50705 23.4062 9.49443 23.4467 9.47783C23.4866 9.46123 23.5251 9.44064 23.5609 9.41674C23.5975 9.39283 23.6313 9.36494 23.6619 9.33439C23.6924 9.30385 23.7203 9.26998 23.7442 9.23346C23.7688 9.1976 23.7887 9.15908 23.8053 9.11857C23.8226 9.07873 23.8352 9.03689 23.8438 8.99439C23.8525 8.95189 23.8564 8.90807 23.8564 8.8649C23.8564 8.82174 23.8525 8.77791 23.8438 8.73541Z" fill="#8469FE"/>
<path d="M33.336 2.25049H29.3876C29.0209 2.25049 28.7236 2.5478 28.7236 2.91456V3.48791H26.872C26.5052 3.48791 26.2079 3.78521 26.2079 4.15197V4.34309C25.1286 4.24886 24.7735 4.04419 23.7823 3.47257C23.02 3.03296 21.8677 2.36857 19.7927 1.43562C19.7831 1.43124 19.7734 1.42719 19.7635 1.42334C19.0881 1.15758 17.3179 0.634698 15.4273 1.49154L12.7551 2.44832L10.5026 0.195952C10.2433 -0.0633643 9.82284 -0.0633643 9.56353 0.195952L2.16866 7.59075C1.92946 7.83001 1.88358 8.24485 2.16866 8.52994L14.8049 21.1662C15.0071 21.3685 15.4806 21.4296 15.7441 21.1662L22.4953 14.4151C22.6708 14.4302 22.8529 14.4384 23.0417 14.4384C24.7767 14.4384 26.3113 13.2482 27.1893 11.9511H33.336C33.7027 11.9511 34 11.6538 34 11.287V2.91456C34 2.5478 33.7027 2.25049 33.336 2.25049ZM10.033 1.60463L11.5465 3.11816C11.0966 3.3964 10.5765 3.54528 10.033 3.54528C9.48948 3.54528 8.96939 3.39647 8.51949 3.11816L10.033 1.60463ZM5.09093 9.57391L3.5774 8.06031L5.09093 6.54678C5.36917 6.99668 5.51806 7.51684 5.51806 8.06031C5.51806 8.60378 5.36924 9.12394 5.09093 9.57391ZM15.2745 19.7574L13.7613 18.2442C14.6852 17.674 15.8638 17.674 16.7877 18.2442L15.2745 19.7574ZM17.7445 17.2875C16.2771 16.223 14.272 16.223 12.8045 17.2875L6.04765 10.5306C6.56621 9.81735 6.84618 8.96065 6.84618 8.06031C6.84618 7.15991 6.56628 6.30327 6.04765 5.59007L7.56284 4.07494C8.27604 4.59351 9.13268 4.87348 10.0331 4.87348C10.9335 4.87348 11.7901 4.59351 12.5033 4.07494L13.9396 5.51124C13.6297 5.557 13.3275 5.65913 13.0457 5.81618C12.5697 6.08141 12.1962 6.47858 11.9636 6.9591C11.2146 7.09782 10.5211 7.46046 9.9771 8.0044C8.50122 9.48034 8.50123 11.8818 9.97717 13.3577C10.7151 14.0956 11.6844 14.4647 12.6538 14.4647C13.6231 14.4647 14.5925 14.0957 15.3305 13.3577C15.8106 12.8776 16.147 12.2875 16.3154 11.6445L18.5576 12.4054C18.3052 13.5747 18.5637 14.8048 19.261 15.771L17.7445 17.2875ZM13.7071 10.7589C13.713 10.7611 13.7188 10.7632 13.7247 10.7652L15.0526 11.2159C14.9523 11.6684 14.7254 12.0845 14.3914 12.4186C13.4333 13.3766 11.8743 13.3767 10.9164 12.4186C9.95824 11.4606 9.95824 9.90169 10.9164 8.94358C11.1474 8.71235 11.4202 8.53166 11.7173 8.40914C11.8399 9.42928 12.5745 10.3386 13.7071 10.7589ZM20.2179 14.8141C19.9615 14.3964 19.8165 13.9197 19.7936 13.4331C20.1117 13.6631 20.5004 13.8884 20.9647 14.0672L20.2179 14.8141ZM26.2079 11.0222C25.5785 12.054 24.3578 13.1101 23.0417 13.1101C22.7955 13.1101 22.5647 13.0926 22.349 13.0614C22.3481 13.0612 22.3473 13.0611 22.3464 13.061C20.9123 12.8527 20.1408 12.0376 19.8866 11.7148C19.873 11.6949 19.8153 11.6194 19.8068 11.6069C19.7294 11.4686 19.6026 11.3574 19.4408 11.3025L14.161 9.51056C13.3184 9.19433 12.873 8.47283 13.0771 7.75325C13.0773 7.75278 13.0774 7.75232 13.0775 7.75185C13.0777 7.75132 13.0779 7.75073 13.078 7.75019C13.1729 7.41883 13.3909 7.14397 13.6921 6.97616C13.9913 6.80942 14.3372 6.76805 14.6671 6.85949L20.6166 8.74483C20.9663 8.85579 21.3395 8.66202 21.4503 8.31239C21.5611 7.96276 21.3675 7.58956 21.0179 7.47873L16.2861 5.97927L16.2448 5.93797C16.2444 5.93757 16.244 5.9371 16.2435 5.93671L13.7938 3.48698L15.8994 2.733C15.9065 2.73041 15.9153 2.72716 15.9223 2.7243C15.9241 2.72357 15.9276 2.72225 15.9293 2.72151C15.9383 2.71786 15.9472 2.71401 15.9561 2.70996C17.3795 2.05573 18.7326 2.44732 19.263 2.65358C21.2674 3.55544 22.3372 4.17229 23.1188 4.62299C24.2054 5.24967 24.7291 5.55162 26.2079 5.67374V11.0222ZM28.7236 10.6228H27.536V4.81603H28.7236V10.6228ZM32.6719 10.6228H30.0517V3.57862H32.6719V10.6228Z" fill="#8469FE"/>
</g>
<defs>
<clipPath id="clip0_1992_849">
<rect width="34" height="34" fill="white"/>
</clipPath>
</defs>
</svg>
