<svg width="309" height="309" viewBox="0 0 309 309" fill="none" xmlns="http://www.w3.org/2000/svg">
<path d="M267.8 175.1H257.5V309H267.8V175.1Z" fill="#8469FE"/>
<path d="M30.9001 236.9V124.115C30.9001 62.315 82.9151 10.3 144.2 10.3V0C77.2501 0 20.6001 56.65 20.6001 124.115V242.05C20.6001 245.14 22.6601 247.2 25.7501 247.2H133.9V309H144.2V247.2H164.8V236.9H139.05H30.9001Z" fill="#8469FE"/>
<path d="M61.8003 149.35V185.4C61.8003 188.49 63.8603 190.55 66.9503 190.55H92.7003V180.25H72.1003V149.35H61.8003Z" fill="#8469FE"/>
<path d="M226.085 49.9551C225.57 47.8951 223.51 46.3501 221.45 46.3501C219.39 46.3501 217.33 47.8951 216.815 49.9551L201.88 94.7601C201.365 95.7901 200.85 96.8201 200.85 97.8501V267.8V309H211.15V272.95H216.3H226.6H231.75V309H242.05V267.8V97.8501C242.05 96.8201 241.535 95.2751 241.02 94.7601L226.085 49.9551ZM221.45 67.9801L229.69 92.7001H213.21L221.45 67.9801ZM211.15 262.65V103H216.3V262.65H211.15ZM226.6 262.65V103H231.75V262.65H226.6Z" fill="#8469FE"/>
<path d="M226.6 15.45H216.3V25.75H226.6V15.45Z" fill="#8469FE"/>
<path d="M247.2 15.45H236.9V25.75H247.2V15.45Z" fill="#8469FE"/>
<path d="M267.8 15.45H257.5V25.75H267.8V15.45Z" fill="#8469FE"/>
<path d="M185.4 15.45H175.1V25.75H185.4V15.45Z" fill="#8469FE"/>
<path d="M206 15.45H195.7V25.75H206V15.45Z" fill="#8469FE"/>
<path d="M288.4 36.05H278.1V46.3501H288.4V36.05Z" fill="#8469FE"/>
<path d="M288.4 56.6499H278.1V66.9499H288.4V56.6499Z" fill="#8469FE"/>
<path d="M288.4 77.25H278.1V87.55H288.4V77.25Z" fill="#8469FE"/>
<path d="M288.4 97.8501H278.1V108.15H288.4V97.8501Z" fill="#8469FE"/>
<path d="M288.4 118.45H278.1V128.75H288.4V118.45Z" fill="#8469FE"/>
<path d="M164.8 36.05H154.5V46.3501H164.8V36.05Z" fill="#8469FE"/>
<path d="M164.8 56.6499H154.5V66.9499H164.8V56.6499Z" fill="#8469FE"/>
<path d="M164.8 77.25H154.5V87.55H164.8V77.25Z" fill="#8469FE"/>
<path d="M164.8 97.8501H154.5V108.15H164.8V97.8501Z" fill="#8469FE"/>
<path d="M164.8 118.45H154.5V128.75H164.8V118.45Z" fill="#8469FE"/>
<path d="M185.4 118.45H175.1V128.75H185.4V118.45Z" fill="#8469FE"/>
<path d="M267.8 118.45H257.5V128.75H267.8V118.45Z" fill="#8469FE"/>
</svg>
