<svg width="43" height="43" viewBox="0 0 43 43" fill="none" xmlns="http://www.w3.org/2000/svg">
<path d="M42.995 10.7527C42.9839 7.78505 40.5691 5.38831 37.6014 5.39948C35.4902 5.40737 33.5793 6.65083 32.7169 8.57781L28.1293 7.81074L27.6806 10.4612L32.2911 11.231C32.4705 13.2301 33.7491 14.9625 35.6065 15.7232L34.298 25.5929C31.603 25.9097 29.5693 28.1897 29.5613 30.9033V30.9234L14.0736 35.0073C13.2475 33.5346 11.7744 32.5386 10.0999 32.3205L7.35677 10.3658C8.66177 9.84611 9.71212 8.83716 10.284 7.55416L14.4363 8.24734L14.8783 5.59821L10.7058 4.901C10.4521 1.95164 7.8555 -0.233691 4.90613 0.0200384C1.95676 0.273683 -0.228564 2.87025 0.0251653 5.81962C0.241532 8.33524 2.18421 10.3587 4.68884 10.6775L7.43469 32.6282C4.67499 33.7196 3.32247 36.8415 4.41387 39.6012C5.50527 42.3609 8.62718 43.7134 11.3869 42.622C13.439 41.8104 14.7863 39.8268 14.7843 37.6201V37.6L30.272 33.5161C31.7146 36.1011 34.9796 37.0272 37.5645 35.5847C40.1495 34.142 41.0756 30.8771 39.6331 28.2921C39.0365 27.2231 38.092 26.3905 36.9566 25.9328L38.265 16.0631C40.9574 15.7432 42.9875 13.4641 42.995 10.7527ZM5.38068 8.06598C3.89684 8.06598 2.69394 6.86308 2.69394 5.37924C2.69394 3.89541 3.89684 2.6925 5.38068 2.6925C6.86451 2.6925 8.06742 3.89541 8.06742 5.37924C8.06742 6.86308 6.86451 8.06598 5.38068 8.06598ZM9.41078 40.3069C7.92695 40.3069 6.72405 39.1039 6.72405 37.6201C6.72405 36.1363 7.92695 34.9334 9.41078 34.9334C10.8946 34.9334 12.0975 36.1363 12.0975 37.6201C12.0975 39.1039 10.8946 40.3069 9.41078 40.3069ZM37.6215 30.9033C37.6215 32.3871 36.4186 33.59 34.9348 33.59C33.451 33.59 32.2481 32.3871 32.2481 30.9033C32.2481 29.4194 33.451 28.2165 34.9348 28.2165C36.4186 28.2165 37.6215 29.4194 37.6215 30.9033ZM34.9348 10.7527C34.9348 9.26889 36.1377 8.06598 37.6215 8.06598C39.1054 8.06598 40.3083 9.26889 40.3083 10.7527C40.3083 12.2366 39.1054 13.4395 37.6215 13.4395C36.1377 13.4395 34.9348 12.2366 34.9348 10.7527Z" fill="#8469FE"/>
<path d="M25.4795 7.36851L22.8293 6.92627L22.3871 9.57647L25.0373 10.0187L25.4795 7.36851Z" fill="#8469FE"/>
<path d="M20.1714 6.48367L17.5215 6.04089L17.0787 8.69082L19.7286 9.13359L20.1714 6.48367Z" fill="#8469FE"/>
</svg>
