<svg width="489" height="489" viewBox="0 0 489 489" fill="none" xmlns="http://www.w3.org/2000/svg">
<g clip-path="url(#clip0_2020_735)">
<path d="M448.104 0.00610352H192.858C170.495 0.00610352 152.307 18.1991 152.307 40.5531V76.1511H116.696C94.333 76.1511 76.145 94.3461 76.145 116.701V152.315H40.549C18.184 152.315 0 170.51 0 192.862V448.105C0 470.457 18.184 488.652 40.549 488.652H295.798C318.155 488.652 336.343 470.457 336.343 448.105V412.497H371.962C394.323 412.497 412.509 394.302 412.509 371.948V336.34H448.105C470.47 336.34 488.658 318.148 488.658 295.793V40.5531C488.657 18.1981 470.47 0.00610352 448.104 0.00610352ZM34.356 192.862C34.356 189.449 37.141 186.671 40.548 186.671H295.797C299.202 186.671 301.989 189.449 301.989 192.862V375.79L224.164 370.012L188.496 329.102C183.933 323.903 176.111 323.207 170.746 327.5L141.742 350.635L109.365 277.926C107.414 273.566 103.207 270.629 98.439 270.311C93.623 269.966 89.128 272.349 86.613 276.409L34.356 361.23V192.862ZM301.99 408.731H35.362L95.741 310.715L124.964 376.336C126.595 379.976 129.814 382.661 133.691 383.609C137.531 384.556 141.642 383.658 144.779 381.168L177.175 355.332L208.226 390.94C210.456 393.49 213.611 395.066 216.984 395.318L301.991 401.633V408.731H301.99ZM301.99 448.105C301.99 451.519 299.203 454.295 295.798 454.295H40.549C37.142 454.295 34.357 451.519 34.357 448.105V434.499H301.99V448.105ZM378.149 371.948C378.149 375.365 375.366 378.138 371.961 378.138H336.342V192.862C336.342 170.51 318.154 152.315 295.797 152.315H110.507V116.7C110.507 113.284 113.288 110.51 116.696 110.51H371.962C375.366 110.51 378.15 113.285 378.15 116.7V371.948H378.149ZM454.298 295.793C454.298 299.206 451.513 301.983 448.105 301.983H412.509V116.7C412.509 94.3461 394.324 76.1501 371.962 76.1501H186.667V40.5531C186.667 37.1401 189.452 34.3631 192.858 34.3631H448.104C451.512 34.3631 454.297 37.1401 454.297 40.5531V295.793H454.298Z" fill="#8469FE"/>
<path d="M219.854 294.719C242.009 294.719 259.998 276.753 259.998 254.582C259.998 232.423 242.01 214.454 219.854 214.454C197.693 214.454 179.706 232.422 179.706 254.582C179.706 276.753 197.692 294.719 219.854 294.719Z" fill="#8469FE"/>
</g>
<defs>
<clipPath id="clip0_2020_735">
<rect width="488.657" height="488.657" fill="white"/>
</clipPath>
</defs>
</svg>
