<svg width="38" height="24" viewBox="0 0 38 24" fill="none" xmlns="http://www.w3.org/2000/svg">
<path d="M9.77273 9.27273C9.70455 8.69697 9.42803 8.25 8.94318 7.93182C8.45833 7.61364 7.86364 7.45455 7.15909 7.45455C6.64394 7.45455 6.19318 7.53788 5.80682 7.70455C5.42424 7.87121 5.125 8.10038 4.90909 8.39205C4.69697 8.68371 4.59091 9.01515 4.59091 9.38636C4.59091 9.69697 4.66477 9.96401 4.8125 10.1875C4.96402 10.4072 5.1572 10.5909 5.39205 10.7386C5.62689 10.8826 5.87311 11.0019 6.13068 11.0966C6.38826 11.1875 6.625 11.2614 6.84091 11.3182L8.02273 11.6364C8.32576 11.7159 8.66288 11.8258 9.03409 11.9659C9.40909 12.1061 9.76705 12.2973 10.108 12.5398C10.4527 12.7784 10.7367 13.0852 10.9602 13.4602C11.1837 13.8352 11.2955 14.2955 11.2955 14.8409C11.2955 15.4697 11.1307 16.0379 10.8011 16.5455C10.4754 17.053 9.99811 17.4564 9.36932 17.7557C8.74432 18.0549 7.98485 18.2045 7.09091 18.2045C6.25758 18.2045 5.53598 18.0701 4.92614 17.8011C4.32008 17.5322 3.8428 17.1572 3.49432 16.6761C3.14962 16.1951 2.95455 15.6364 2.90909 15H4.36364C4.40152 15.4394 4.54924 15.803 4.80682 16.0909C5.06818 16.375 5.39773 16.5871 5.79545 16.7273C6.19697 16.8636 6.62879 16.9318 7.09091 16.9318C7.62879 16.9318 8.11174 16.8447 8.53977 16.6705C8.9678 16.4924 9.30682 16.2462 9.55682 15.9318C9.80682 15.6136 9.93182 15.2424 9.93182 14.8182C9.93182 14.4318 9.82386 14.1174 9.60795 13.875C9.39205 13.6326 9.10795 13.4356 8.75568 13.2841C8.40341 13.1326 8.02273 13 7.61364 12.8864L6.18182 12.4773C5.27273 12.2159 4.55303 11.8428 4.02273 11.358C3.49242 10.8731 3.22727 10.2386 3.22727 9.45455C3.22727 8.80303 3.40341 8.23485 3.75568 7.75C4.11174 7.26136 4.58902 6.88258 5.1875 6.61364C5.78977 6.34091 6.46212 6.20455 7.20455 6.20455C7.95455 6.20455 8.62121 6.33901 9.20455 6.60795C9.78788 6.87311 10.25 7.23674 10.5909 7.69886C10.9356 8.16098 11.1174 8.68561 11.1364 9.27273H9.77273ZM15.7259 18L12.544 6.36364H13.9759L16.4077 15.8409H16.5213L18.9986 6.36364H20.5895L23.0668 15.8409H23.1804L25.6122 6.36364H27.044L23.8622 18H22.4077L19.8395 8.72727H19.7486L17.1804 18H15.7259ZM32.6861 6.36364V18H31.277V7.84091H31.2088L28.3679 9.72727V8.29545L31.277 6.36364H32.6861Z" fill="#8469FE"/>
<rect x="0.5" y="0.5" width="37" height="23" stroke="#8469FE"/>
</svg>
