<svg width="38" height="47" viewBox="0 0 38 47" fill="none" xmlns="http://www.w3.org/2000/svg">
<path d="M26.9758 46.384C25.3971 46.384 24.0104 46.1707 22.8158 45.744C21.6211 45.2747 20.5331 44.72 19.5518 44.08C18.5704 43.3973 17.6318 42.736 16.7358 42.096C15.8398 41.4133 14.9438 40.8587 14.0478 40.432C13.1518 39.9627 12.1704 39.728 11.1038 39.728C9.31175 39.728 8.07442 40.1973 7.39175 41.136C6.75175 42.0747 6.30375 43.2907 6.04775 44.784C5.96242 44.9973 5.85575 45.2533 5.72775 45.552C5.59975 45.8507 5.27975 46 4.76775 46H1.69575C1.35442 46 1.05575 45.872 0.79975 45.616C0.586417 45.36 0.47975 45.0827 0.47975 44.784C0.565084 41.84 1.31175 39.5573 2.71975 37.936C4.12775 36.272 5.85575 35.184 7.90375 34.672C7.86108 33.392 7.73308 32.112 7.51975 30.832C7.30642 29.5093 7.09308 28.1013 6.87975 26.608H1.95175C1.52508 26.608 1.16242 26.48 0.86375 26.224C0.60775 25.9253 0.47975 25.5627 0.47975 25.136V22.96C0.47975 22.5333 0.60775 22.192 0.86375 21.936C1.16242 21.6373 1.52508 21.488 1.95175 21.488H6.04775C6.00508 20.8053 5.96242 20.08 5.91975 19.312C5.87708 18.544 5.85575 17.7547 5.85575 16.944C5.85575 13.872 6.41042 11.0987 7.51975 8.624C8.62908 6.14933 10.3144 4.18666 12.5758 2.736C14.8798 1.24266 17.7598 0.495998 21.2158 0.495998C24.5438 0.495998 27.3598 1.136 29.6637 2.416C31.9678 3.696 33.7171 5.424 34.9118 7.6C36.1491 9.73333 36.7891 12.1013 36.8318 14.704C36.8318 15.088 36.7038 15.4293 36.4478 15.728C36.1918 15.984 35.8718 16.112 35.4878 16.112H32.0958C31.7118 16.112 31.3704 15.984 31.0718 15.728C30.7731 15.4293 30.5598 15.0667 30.4318 14.64C29.8771 11.8667 28.8531 9.73333 27.3598 8.24C25.9091 6.704 23.8398 5.936 21.1518 5.936C18.1651 5.936 15.9251 6.96 14.4318 9.008C12.9811 11.056 12.2558 13.7227 12.2558 17.008C12.2558 17.8187 12.2771 18.608 12.3198 19.376C12.3624 20.1013 12.4051 20.8053 12.4478 21.488H24.7998C25.2264 21.488 25.5678 21.6373 25.8238 21.936C26.1224 22.192 26.2718 22.5333 26.2718 22.96V25.136C26.2718 25.5627 26.1224 25.9253 25.8238 26.224C25.5678 26.48 25.2264 26.608 24.7998 26.608H13.0238C13.1944 27.9733 13.3651 29.3173 13.5358 30.64C13.7491 31.9627 13.8558 33.3493 13.8558 34.8C15.3064 35.0987 16.5438 35.568 17.5678 36.208C18.6344 36.848 19.6158 37.5307 20.5118 38.256C21.4078 38.9813 22.3251 39.6213 23.2638 40.176C24.2024 40.688 25.2691 40.944 26.4638 40.944C28.2984 40.944 29.5784 40.4533 30.3038 39.472C31.0291 38.448 31.5411 37.168 31.8398 35.632C31.8824 35.4187 32.0104 35.184 32.2238 34.928C32.4798 34.672 32.7571 34.544 33.0558 34.544H35.9358C36.3198 34.544 36.6184 34.672 36.8318 34.928C37.0451 35.1413 37.1518 35.4187 37.1518 35.76C37.1091 38.064 36.6184 40.0053 35.6798 41.584C34.7838 43.1627 33.5678 44.3573 32.0318 45.168C30.5384 45.9787 28.8531 46.384 26.9758 46.384Z" fill="#8469FE"/>
</svg>
