<svg width="512" height="512" viewBox="0 0 512 512" fill="none" xmlns="http://www.w3.org/2000/svg">
<g clip-path="url(#clip0_2016_704)">
<path d="M222.717 366.95C216.965 366.95 211.639 363.71 209.025 358.487L167.45 275.418L144.308 311.032C141.482 315.379 136.649 318.003 131.464 318.003H15.318C6.858 318.002 0 311.144 0 302.684C0 294.224 6.858 287.366 15.318 287.366H123.151L156.335 236.299C159.328 231.695 164.567 229.057 170.038 229.351C175.522 229.659 180.419 232.879 182.877 237.789L218.259 308.486L254.187 172.243C255.846 165.954 261.296 161.397 267.78 160.88C274.255 160.361 280.368 163.997 283.003 169.943L309.236 229.149L331.315 194.925C334.117 190.584 338.917 187.946 344.084 187.911C349.324 187.859 354.086 190.449 356.946 194.752L379.91 229.325H496.683C505.143 229.325 512.001 236.183 512.001 244.643C512.001 253.103 505.143 259.961 496.683 259.961H371.695C366.564 259.961 361.774 257.392 358.935 253.119L344.373 231.195L319.597 269.601C316.546 274.331 311.14 277.009 305.532 276.569C299.92 276.131 295.001 272.649 292.72 267.503L272.677 222.267L237.534 355.537C235.909 361.699 230.638 366.212 224.3 366.867C223.769 366.922 223.242 366.95 222.717 366.95Z" fill="#8469FE"/>
<path d="M247.875 478.107C245.649 478.107 243.422 477.623 241.359 476.652C168.291 442.307 94.944 378.895 49.939 311.162C46.814 306.461 46.529 300.421 49.198 295.446C51.865 290.471 57.053 287.367 62.697 287.367H123.151L156.335 236.299C159.327 231.695 164.562 229.043 170.038 229.351C175.522 229.659 180.419 232.879 182.877 237.789L218.259 308.486L254.187 172.243C255.846 165.954 261.296 161.397 267.78 160.88C274.255 160.361 280.368 163.997 283.003 169.943L309.236 229.149L331.315 194.925C334.117 190.584 338.917 187.946 344.084 187.911C344.118 187.911 344.153 187.911 344.187 187.911C349.315 187.911 354.107 190.478 356.947 194.753L384.456 236.169C389.137 243.217 387.219 252.723 380.173 257.404C373.124 262.084 363.618 260.166 358.938 253.121L344.374 231.197L319.599 269.603C316.546 274.333 311.133 277.011 305.534 276.571C299.922 276.133 295.003 272.651 292.722 267.504L272.679 222.268L237.536 355.538C235.911 361.7 230.64 366.213 224.302 366.868C217.953 367.519 211.879 364.186 209.027 358.488L167.452 275.419L144.31 311.033C141.484 315.38 136.651 318.004 131.466 318.004H92.704C133.262 369.663 191.255 417.676 247.876 445.779C300.532 419.638 355.277 375.805 395.526 327.358C400.933 320.85 410.588 319.958 417.096 325.364C423.603 330.77 424.496 340.427 419.09 346.934C374.449 400.67 312.88 449.161 254.392 476.653C252.328 477.623 250.1 478.107 247.875 478.107Z" fill="#8469FE"/>
<path d="M169.179 244.646L222.723 351.632L268.998 176.15L306.725 261.299L344.186 203.23L371.696 244.646H463.39C467.152 234.627 470.11 224.633 472.133 214.743C474.218 204.525 475.348 194.363 475.348 184.419C475.348 109.764 415.654 49.2119 342.006 49.2119C305.276 49.2119 272.02 64.2939 247.874 88.6559C223.729 64.2929 190.473 49.2119 153.742 49.2119C80.096 49.2119 20.4 109.764 20.4 184.419C20.4 194.363 21.53 204.525 23.615 214.743C29.561 243.82 43.485 273.774 62.695 302.686H131.462L169.179 244.646Z" fill="#8469FE" fill-opacity="0.6"/>
<path d="M222.717 366.95C216.965 366.95 211.639 363.71 209.025 358.489L167.45 275.42L144.308 311.034C141.482 315.381 136.649 318.005 131.464 318.005H62.697C57.567 318.005 52.777 315.438 49.939 311.164C28.621 279.083 14.718 247.674 8.61002 217.814C6.27102 206.34 5.08502 195.107 5.08502 184.42C5.08502 101.42 71.773 33.895 153.744 33.895C188.437 33.895 221.353 45.876 247.876 67.906C274.399 45.876 307.315 33.895 342.008 33.895C423.979 33.895 490.666 101.42 490.666 184.42C490.666 195.112 489.48 206.344 487.143 217.806C485.009 228.24 481.843 239.081 477.732 250.031C475.49 256.006 469.774 259.964 463.392 259.964H371.697C366.566 259.964 361.776 257.395 358.937 253.122L344.374 231.198L319.598 269.604C316.547 274.334 311.141 277.012 305.533 276.572C299.921 276.134 295.002 272.652 292.721 267.505L272.678 222.269L237.535 355.539C235.91 361.701 230.639 366.214 224.301 366.869C223.769 366.922 223.241 366.95 222.717 366.95ZM169.177 229.328C169.463 229.328 169.75 229.336 170.038 229.353C175.522 229.661 180.419 232.881 182.877 237.791L218.259 308.488L254.187 172.245C255.846 165.956 261.296 161.399 267.78 160.882C274.255 160.363 280.368 163.999 283.003 169.945L309.236 229.151L331.315 194.927C334.117 190.586 338.917 187.948 344.084 187.913C349.324 187.861 354.088 190.451 356.946 194.754L379.91 229.327H452.494C454.404 223.31 455.954 217.402 457.126 211.672C459.053 202.227 460.03 193.056 460.03 184.417C460.03 118.309 407.086 64.527 342.008 64.527C310.633 64.527 281.065 76.925 258.757 99.436C255.88 102.339 251.964 103.972 247.877 103.972C243.79 103.972 239.874 102.339 236.997 99.436C214.688 76.925 185.121 64.527 153.746 64.527C88.667 64.527 35.722 118.309 35.722 184.417C35.722 193.053 36.699 202.225 38.628 211.681C43.517 235.59 54.408 261.024 71.026 287.367H123.152L156.336 236.299C159.17 231.937 164.012 229.328 169.177 229.328Z" fill="#8469FE"/>
</g>
<defs>
<clipPath id="clip0_2016_704">
<rect width="512" height="512" fill="white"/>
</clipPath>
</defs>
</svg>
