<svg width="30" height="30" viewBox="0 0 30 30" fill="none" xmlns="http://www.w3.org/2000/svg">
    <path d="M3.75 26.25L11.25 18.75M17.5 21.25C16.3509 21.25 15.2131 21.0237 14.1515 20.5839C13.0899 20.1442 12.1253 19.4997 11.3128 18.6872C10.5003 17.8747 9.85578 16.9101 9.41605 15.8485C8.97632 14.7869 8.75 13.6491 8.75 12.5C8.75 11.3509 8.97632 10.2131 9.41605 9.15152C9.85578 8.08992 10.5003 7.12533 11.3128 6.31282C12.1253 5.5003 13.0899 4.85578 14.1515 4.41605C15.2131 3.97633 16.3509 3.75 17.5 3.75C19.8206 3.75 22.0462 4.67187 23.6872 6.31282C25.3281 7.95376 26.25 10.1794 26.25 12.5C26.25 14.8206 25.3281 17.0462 23.6872 18.6872C22.0462 20.3281 19.8206 21.25 17.5 21.25Z" stroke="#8469FE" stroke-width="2" stroke-linecap="round" stroke-linejoin="round"/>
</svg>
