<svg width="297" height="297" viewBox="0 0 297 297" fill="none" xmlns="http://www.w3.org/2000/svg">
<g clip-path="url(#clip0_2021_754)">
<path d="M295.612 19.2614L277.738 1.38803C275.886 -0.463002 272.886 -0.463002 271.035 1.38803L238.643 33.7797L228.59 23.7263C227.701 22.837 226.496 22.3382 225.238 22.3382C223.981 22.3382 222.777 22.8376 221.887 23.7263L202.557 43.0557C198.721 40.5167 194.215 39.1518 189.49 39.1518C183.146 39.1518 177.194 41.609 172.733 46.0698L108.516 110.287C106.665 112.139 106.665 115.139 108.516 116.99C109.441 117.916 110.654 118.378 111.867 118.378C113.08 118.378 114.293 117.916 115.218 116.99L179.436 52.772C182.107 50.1014 185.678 48.6303 189.49 48.6303C191.647 48.6303 193.72 49.117 195.603 50.0097L44.2989 201.315C44.2803 201.333 44.2653 201.353 44.2473 201.372C44.1823 201.44 44.1191 201.51 44.057 201.583C44.0095 201.638 43.963 201.693 43.9178 201.75C43.8714 201.809 43.8273 201.871 43.7838 201.933C43.731 202.008 43.6788 202.083 43.6307 202.161C43.6162 202.184 43.5999 202.205 43.586 202.228L10.0742 258.081C8.95526 259.946 9.24878 262.334 10.7872 263.871L12.0819 265.166L4.08434 273.163C-1.36145 278.609 -1.36145 287.47 4.08434 292.916C6.80723 295.638 10.384 297 13.9602 297C17.5364 297 21.1137 295.638 23.836 292.916L31.8336 284.918L33.1283 286.213C34.042 287.126 35.2555 287.601 36.4812 287.601C37.3182 287.601 38.1617 287.38 38.9181 286.925L94.7716 253.413C94.7913 253.401 94.8082 253.387 94.8279 253.376C94.9143 253.322 94.999 253.265 95.0825 253.206C95.1347 253.169 95.1875 253.13 95.2386 253.091C95.3041 253.04 95.3685 252.986 95.4323 252.93C95.495 252.876 95.557 252.822 95.6156 252.764C95.6382 252.743 95.6626 252.724 95.6847 252.702C95.6963 252.689 273.272 75.112 273.272 75.112C275.123 73.261 275.123 70.2603 273.272 68.4098L263.219 58.3559L295.611 25.9637C297.462 24.1126 297.462 21.1119 295.612 19.2614ZM17.1338 286.213C16.2857 287.061 15.1592 287.528 13.9602 287.528C12.7612 287.528 11.6346 287.061 10.7866 286.213C9.93908 285.365 9.47211 284.239 9.47211 283.04C9.47211 281.841 9.93908 280.714 10.7866 279.866L18.7841 271.869L25.1314 278.216L17.1338 286.213ZM92.3341 242.648L86.7491 237.063C84.8981 235.212 81.8973 235.212 80.0469 237.063C78.1958 238.914 78.1958 241.914 80.0469 243.765L84.691 248.409L37.215 276.894L20.1061 259.786L48.5909 212.31L66.6412 230.36C67.5665 231.286 68.78 231.749 69.9924 231.749C71.2047 231.749 72.4183 231.286 73.3435 230.36C75.1945 228.509 75.1945 225.509 73.3435 223.658L54.3523 204.667L202.895 56.1237L240.876 94.105L92.3341 242.648ZM263.22 71.7621L247.58 87.4022L209.598 49.4209L225.239 33.7802L235.284 43.8255C235.3 43.8417 253.159 61.7006 253.159 61.7006C253.172 61.7145 263.22 71.7621 263.22 71.7621ZM256.517 51.6531L245.346 40.4825L274.387 11.4414L285.558 22.6126L256.517 51.6531Z" fill="#8469FE"/>
</g>
<defs>
<clipPath id="clip0_2021_754">
<rect width="297" height="297" fill="white"/>
</clipPath>
</defs>
</svg>
