<svg width="38" height="38" viewBox="0 0 38 38" fill="none" xmlns="http://www.w3.org/2000/svg">
<path d="M19 0C8.49931 0 0 8.4979 0 19C0 29.5007 8.49782 38 19 38C29.5007 38 38 29.5021 38 19C38 8.49931 29.5022 0 19 0ZM19 36.5156C9.31965 36.5156 1.48438 28.6818 1.48438 19C1.48438 9.31972 9.31824 1.48438 19 1.48438C28.6804 1.48438 36.5156 9.31824 36.5156 19C36.5156 28.6803 28.6818 36.5156 19 36.5156Z" fill="#8469FE"/>
<path d="M23.605 3.41553H14.3954C12.8075 3.41553 11.5156 4.70738 11.5156 6.29536V12.2936C11.5156 13.7207 12.2203 15.0515 13.4006 15.8536L15.1345 17.032C16.529 17.9798 16.5154 20.0295 15.1345 20.968L13.4006 22.1464C12.2203 22.9486 11.5156 24.2794 11.5156 25.7065V31.7047C11.5156 33.2927 12.8075 34.5845 14.3954 34.5845H23.605C25.193 34.5845 26.4848 33.2927 26.4848 31.7047C26.4848 31.0105 26.4848 26.6329 26.4848 25.7065C26.4848 24.2794 25.7802 22.9486 24.5999 22.1464L22.8659 20.968C21.4921 20.0343 21.4631 17.9854 22.8659 17.032C24.5178 15.8985 24.6817 15.8253 25.0197 15.5289C25.9453 14.7173 26.4848 13.5423 26.4848 12.2936V6.29529C26.4848 4.70738 25.193 3.41553 23.605 3.41553ZM14.3954 4.8999H23.605C24.3745 4.8999 25.0004 5.52594 25.0004 6.29536V11.5513H19.6144C19.2045 11.5513 18.8723 11.8837 18.8723 12.2935C18.8723 12.7033 19.2045 13.0357 19.6144 13.0357H24.9C24.5429 14.3454 23.7431 14.6041 22.0315 15.8043C21.0673 16.4597 20.4461 17.5284 20.3522 18.6866H17.648C17.5563 17.5556 16.9569 16.476 15.9687 15.8043C14.2122 14.6083 13.4397 14.2802 13.1003 13.0357H13.6769C14.0868 13.0357 14.4191 12.7033 14.4191 12.2935C14.4191 11.8837 14.0868 11.5513 13.6769 11.5513H12.9999V6.29529C13 5.52586 13.626 4.8999 14.3954 4.8999ZM25.0004 31.7047C25.0004 32.4741 24.3745 33.1001 23.605 33.1001H14.3954C13.626 33.1001 13 32.4741 13 31.7047V31.4266L17.6341 28.8339C18.4767 28.3625 19.5238 28.3625 20.3665 28.8339L25.0005 31.4266V31.7047H25.0004ZM23.7655 23.3741C24.5388 23.8996 25.0004 24.7715 25.0004 25.7065V29.7257L21.0912 27.5385C19.8015 26.8169 18.1989 26.8168 16.9092 27.5385L13 29.7257V25.7064C13 24.7715 13.4616 23.8995 14.2349 23.374L15.9688 22.1956C16.6951 21.7021 17.2205 20.9854 17.4793 20.1709H20.5211C20.7799 20.9854 21.3054 21.7021 22.0316 22.1956L23.7655 23.3741Z" fill="#8469FE"/>
<path d="M16.6455 13.0356H16.6474C17.0573 13.0356 17.3886 12.7033 17.3886 12.2935C17.3886 11.8836 17.0554 11.5513 16.6455 11.5513C16.2356 11.5513 15.9033 11.8836 15.9033 12.2935C15.9033 12.7033 16.2356 13.0356 16.6455 13.0356Z" fill="#8469FE"/>
</svg>
