<svg width="34" height="34" viewBox="0 0 34 34" fill="none" xmlns="http://www.w3.org/2000/svg">
<g clip-path="url(#clip0_940_541)">
<path d="M33.6161 30.9381C27.9209 26.5011 21.2245 29.1003 14.6239 30.8213L11.6497 19.7209C12.232 19.7274 12.8211 19.8726 13.3687 20.1698C13.8458 20.4462 14.4458 20.2786 14.7213 19.8231C15.6565 18.2767 17.6656 17.4865 19.6703 18.5119C20.437 18.9041 21.3051 18.2004 21.0861 17.3714C19.6447 11.9137 14.289 8.61727 8.9223 9.54105L8.44975 7.77723C8.30744 7.24591 7.76138 6.93035 7.22987 7.07286C6.69848 7.21523 6.38319 7.76143 6.52556 8.29287L6.99811 10.0566C1.8655 11.9484 -1.1002 17.4998 0.381524 22.9307C0.610559 23.7699 1.74179 23.9352 2.19534 23.183C3.17178 21.564 5.26165 20.8626 7.13843 21.8639C7.61004 22.1142 8.18837 21.9491 8.45944 21.5011C8.78417 20.964 9.22312 20.5393 9.72621 20.2392L12.6883 31.2947C8.88019 32.1509 5.0534 32.4875 1.41241 30.8185C0.912442 30.5892 0.321161 30.8088 0.0919263 31.3089C-0.137308 31.809 0.082231 32.4003 0.582336 32.6295C11.9967 37.8618 23.9802 25.9561 32.3917 32.5098C32.8256 32.8478 33.4515 32.7701 33.7896 32.3362C34.1277 31.9022 34.05 31.2762 33.6161 30.9381ZM18.4674 16.0807C17.0383 15.9285 15.5988 16.328 14.4513 17.197C13.7961 14.971 12.5663 12.9543 10.8123 11.3782C13.9801 11.4065 16.9751 13.1982 18.4674 16.0807ZM2.00131 20.4968C1.85441 17.3251 3.48914 14.2328 6.28856 12.5876C5.564 14.8074 5.49374 17.1679 6.04485 19.4478C4.61286 19.2686 3.16381 19.6453 2.00131 20.4968ZM7.99367 19.0302C7.4267 16.7343 7.58886 14.344 8.59166 12.1454C10.5585 13.547 11.8955 15.5308 12.5539 17.807C10.93 17.5305 9.26137 17.978 7.99367 19.0302Z" fill="#8469FE"/>
<path d="M18.9457 9.02826H20.0049C20.555 9.02826 21.0009 8.58228 21.0009 8.03217C21.0009 7.48206 20.555 7.03607 20.0049 7.03607H18.9457C18.3956 7.03607 17.9497 7.48206 17.9497 8.03217C17.9497 8.58228 18.3956 9.02826 18.9457 9.02826Z" fill="#8469FE"/>
<path d="M25.9685 11.3793C27.814 11.3793 29.3155 9.87772 29.3155 8.03216C29.3155 6.18653 27.814 4.68495 25.9685 4.68495C24.123 4.68495 22.6216 6.18653 22.6216 8.03216C22.6216 9.87772 24.123 11.3793 25.9685 11.3793ZM25.9685 6.67714C26.7156 6.67714 27.3233 7.28496 27.3233 8.03209C27.3233 8.77916 26.7156 9.38704 25.9685 9.38704C25.2215 9.38704 24.6137 8.77923 24.6137 8.03209C24.6137 7.28496 25.2215 6.67714 25.9685 6.67714Z" fill="#8469FE"/>
<path d="M25.9687 3.0515C26.5188 3.0515 26.9647 2.60552 26.9647 2.05541V0.996094C26.9647 0.445984 26.5187 0 25.9687 0C25.4186 0 24.9727 0.445984 24.9727 0.996094V2.05534C24.9727 2.60552 25.4186 3.0515 25.9687 3.0515Z" fill="#8469FE"/>
<path d="M21.0382 4.51024C21.4271 4.89925 22.0579 4.89932 22.4469 4.51024C22.8359 4.12124 22.8359 3.49058 22.4469 3.1015L21.6979 2.35251C21.309 1.96343 20.6783 1.96343 20.2893 2.35251C19.9003 2.74151 19.9003 3.37217 20.2893 3.76125L21.0382 4.51024Z" fill="#8469FE"/>
<path d="M21.0382 11.554L20.2893 12.303C19.9003 12.692 19.9003 13.3226 20.2893 13.7117C20.6782 14.1007 21.309 14.1008 21.6979 13.7117L22.4469 12.9627C22.8359 12.5737 22.8359 11.943 22.4469 11.554C22.0579 11.1649 21.4272 11.1649 21.0382 11.554Z" fill="#8469FE"/>
<path d="M24.9727 14.0089V15.068C24.9727 15.6182 25.4186 16.0641 25.9687 16.0641C26.5187 16.0641 26.9647 15.6182 26.9647 15.068V14.0089C26.9647 13.4588 26.5187 13.0128 25.9687 13.0128C25.4186 13.0128 24.9727 13.4588 24.9727 14.0089Z" fill="#8469FE"/>
<path d="M29.49 11.554C29.101 11.943 29.101 12.5736 29.49 12.9627L30.2389 13.7117C30.6278 14.1007 31.2586 14.1008 31.6475 13.7117C32.0366 13.3227 32.0366 12.692 31.6475 12.303L30.8986 11.554C30.5097 11.1649 29.8789 11.1649 29.49 11.554Z" fill="#8469FE"/>
<path d="M30.9487 8.0321C30.9487 8.58221 31.3947 9.0282 31.9448 9.0282H33.0039C33.554 9.0282 34 8.58221 34 8.0321C34 7.48199 33.554 7.03601 33.0039 7.03601H31.9448C31.3946 7.03601 30.9487 7.48199 30.9487 8.0321Z" fill="#8469FE"/>
<path d="M30.8986 4.51024L31.6475 3.76125C32.0366 3.37224 32.0366 2.74158 31.6475 2.35251C31.2586 1.96343 30.6279 1.96343 30.2389 2.35251L29.49 3.1015C29.101 3.49051 29.101 4.12117 29.49 4.51024C29.8789 4.89925 30.5097 4.89932 30.8986 4.51024Z" fill="#8469FE"/>
</g>
<defs>
<clipPath id="clip0_940_541">
<rect width="34" height="34" fill="white"/>
</clipPath>
</defs>
</svg>
