<svg width="35" height="30" viewBox="0 0 35 30" fill="none" xmlns="http://www.w3.org/2000/svg">
<path d="M5.25 12.8571C7.18047 12.8571 8.75 10.9353 8.75 8.57143C8.75 6.20759 7.18047 4.28571 5.25 4.28571C3.31953 4.28571 1.75 6.20759 1.75 8.57143C1.75 10.9353 3.31953 12.8571 5.25 12.8571ZM29.75 12.8571C31.6805 12.8571 33.25 10.9353 33.25 8.57143C33.25 6.20759 31.6805 4.28571 29.75 4.28571C27.8195 4.28571 26.25 6.20759 26.25 8.57143C26.25 10.9353 27.8195 12.8571 29.75 12.8571ZM31.5 15H28C26.4697 15 26.667 16.9886 27.5891 18.21C28.0206 18.7816 28.3966 19.4156 28.7073 20.1004C29.5553 21.9695 31.1974 23.5714 33.25 23.5714C34.218 23.5714 35 22.6138 35 21.4286V19.2857C35 16.9219 33.4305 15 31.5 15ZM17.5 15C20.8852 15 23.625 11.6451 23.625 7.5C23.625 3.35491 20.8852 0 17.5 0C14.1148 0 11.375 3.35491 11.375 7.5C11.375 11.6451 14.1148 15 17.5 15ZM21.7 17.1429C21.4028 17.1429 21.1128 17.2257 20.8491 17.3629C19.8172 17.8995 18.6907 18.2143 17.5 18.2143C16.3088 18.2143 15.1862 17.8993 14.1512 17.3623C13.8874 17.2254 13.5972 17.1429 13.3 17.1429C9.82187 17.1429 7 20.5982 7 24.8571V26.7857C7 28.5603 8.17578 30 9.625 30H25.375C26.8242 30 28 28.5603 28 26.7857V24.8571C28 20.5982 25.1781 17.1429 21.7 17.1429ZM7.4108 18.2099C8.33312 16.9887 8.53034 15 7 15H3.5C1.56953 15 0 16.9219 0 19.2857V21.4286C0 22.6138 0.782031 23.5714 1.75 23.5714C3.80037 23.5714 5.44168 21.9734 6.28885 20.1062C6.60059 19.4192 6.97786 18.7831 7.4108 18.2099Z" fill="#8469FE"/>
</svg>
